<svg width="745" height="414" viewBox="0 0 745 414" fill="none" xmlns="http://www.w3.org/2000/svg">
<path d="M38.1875 52.2812H17.6406L13.7344 64H1.27344L22.4453 7.125H33.3047L54.5938 64H42.1328L38.1875 52.2812ZM20.8047 42.7891H35.0234L27.875 21.5L20.8047 42.7891ZM71.0781 64H59.75V4H71.0781V64ZM117.172 48.6484L122.719 21.7344H133.617L122.836 64H113.383L105.375 37.3984L97.3672 64H87.9531L77.1719 21.7344H88.0703L93.5781 48.6094L101.312 21.7344H109.477L117.172 48.6484ZM163.734 64C163.214 62.9844 162.836 61.7214 162.602 60.2109C159.867 63.2578 156.312 64.7812 151.938 64.7812C147.797 64.7812 144.359 63.5833 141.625 61.1875C138.917 58.7917 137.562 55.7708 137.562 52.125C137.562 47.6458 139.216 44.2083 142.523 41.8125C145.857 39.4167 150.661 38.2057 156.938 38.1797H162.133V35.7578C162.133 33.8047 161.625 32.2422 160.609 31.0703C159.62 29.8984 158.044 29.3125 155.883 29.3125C153.982 29.3125 152.484 29.7682 151.391 30.6797C150.323 31.5911 149.789 32.8411 149.789 34.4297H138.5C138.5 31.9818 139.255 29.7161 140.766 27.6328C142.276 25.5495 144.411 23.9219 147.172 22.75C149.932 21.5521 153.031 20.9531 156.469 20.9531C161.677 20.9531 165.805 22.2682 168.852 24.8984C171.924 27.5026 173.461 31.1745 173.461 35.9141V54.2344C173.487 58.2448 174.047 61.2786 175.141 63.3359V64H163.734ZM154.398 56.1484C156.065 56.1484 157.602 55.7839 159.008 55.0547C160.414 54.2995 161.456 53.2969 162.133 52.0469V44.7812H157.914C152.263 44.7812 149.255 46.7344 148.891 50.6406L148.852 51.3047C148.852 52.7109 149.346 53.8698 150.336 54.7812C151.326 55.6927 152.68 56.1484 154.398 56.1484ZM197.289 48.0234L205.102 21.7344H217.211L200.219 70.5625L199.281 72.7891C196.755 78.3099 192.589 81.0703 186.781 81.0703C185.141 81.0703 183.474 80.8229 181.781 80.3281V71.7734L183.5 71.8125C185.635 71.8125 187.224 71.487 188.266 70.8359C189.333 70.1849 190.167 69.1042 190.766 67.5938L192.094 64.1172L177.289 21.7344H189.438L197.289 48.0234ZM244.555 52.3203C244.555 50.9401 243.865 49.8594 242.484 49.0781C241.13 48.2708 238.943 47.5547 235.922 46.9297C225.87 44.8203 220.844 40.5495 220.844 34.1172C220.844 30.3672 222.393 27.2422 225.492 24.7422C228.617 22.2161 232.693 20.9531 237.719 20.9531C243.083 20.9531 247.367 22.2161 250.57 24.7422C253.799 27.2682 255.414 30.5495 255.414 34.5859H244.125C244.125 32.9714 243.604 31.6432 242.562 30.6016C241.521 29.5339 239.893 29 237.68 29C235.779 29 234.307 29.4297 233.266 30.2891C232.224 31.1484 231.703 32.2422 231.703 33.5703C231.703 34.8203 232.289 35.8359 233.461 36.6172C234.659 37.3724 236.664 38.0365 239.477 38.6094C242.289 39.1562 244.659 39.7812 246.586 40.4844C252.549 42.6719 255.531 46.4609 255.531 51.8516C255.531 55.7057 253.878 58.8307 250.57 61.2266C247.263 63.5964 242.992 64.7812 237.758 64.7812C234.216 64.7812 231.065 64.1562 228.305 62.9062C225.57 61.6302 223.422 59.8984 221.859 57.7109C220.297 55.4974 219.516 53.1146 219.516 50.5625H230.219C230.323 52.5677 231.065 54.1042 232.445 55.1719C233.826 56.2396 235.674 56.7734 237.992 56.7734C240.154 56.7734 241.781 56.3698 242.875 55.5625C243.995 54.7292 244.555 53.6484 244.555 52.3203Z" fill="#12100C"/>
<path d="M27.1328 131.18H17.7969V152H6.07812V95.125H27.2109C33.9297 95.125 39.112 96.6224 42.7578 99.6172C46.4036 102.612 48.2266 106.844 48.2266 112.312C48.2266 116.193 47.3802 119.435 45.6875 122.039C44.0208 124.617 41.4818 126.674 38.0703 128.211L50.375 151.453V152H37.7969L27.1328 131.18ZM17.7969 121.688H27.25C30.1927 121.688 32.4714 120.945 34.0859 119.461C35.7005 117.951 36.5078 115.88 36.5078 113.25C36.5078 110.568 35.7396 108.458 34.2031 106.922C32.6927 105.385 30.362 104.617 27.2109 104.617H17.7969V121.688ZM75.8828 152.781C69.6849 152.781 64.6328 150.88 60.7266 147.078C56.8464 143.276 54.9062 138.211 54.9062 131.883V130.789C54.9062 126.544 55.7266 122.755 57.3672 119.422C59.0078 116.062 61.3255 113.484 64.3203 111.688C67.3411 109.865 70.7786 108.953 74.6328 108.953C80.4141 108.953 84.9583 110.776 88.2656 114.422C91.599 118.068 93.2656 123.237 93.2656 129.93V134.539H66.3516C66.7161 137.299 67.8099 139.513 69.6328 141.18C71.4818 142.846 73.8125 143.68 76.625 143.68C80.974 143.68 84.3724 142.104 86.8203 138.953L92.3672 145.164C90.6745 147.56 88.3828 149.435 85.4922 150.789C82.6016 152.117 79.3984 152.781 75.8828 152.781ZM74.5938 118.094C72.3542 118.094 70.5312 118.849 69.125 120.359C67.7448 121.87 66.8594 124.031 66.4688 126.844H82.1719V125.945C82.1198 123.445 81.4427 121.518 80.1406 120.164C78.8385 118.784 76.9896 118.094 74.5938 118.094ZM124.203 152C123.682 150.984 123.305 149.721 123.07 148.211C120.336 151.258 116.781 152.781 112.406 152.781C108.266 152.781 104.828 151.583 102.094 149.188C99.3854 146.792 98.0312 143.771 98.0312 140.125C98.0312 135.646 99.6849 132.208 102.992 129.812C106.326 127.417 111.13 126.206 117.406 126.18H122.602V123.758C122.602 121.805 122.094 120.242 121.078 119.07C120.089 117.898 118.513 117.312 116.352 117.312C114.451 117.312 112.953 117.768 111.859 118.68C110.792 119.591 110.258 120.841 110.258 122.43H98.9688C98.9688 119.982 99.724 117.716 101.234 115.633C102.745 113.549 104.88 111.922 107.641 110.75C110.401 109.552 113.5 108.953 116.938 108.953C122.146 108.953 126.273 110.268 129.32 112.898C132.393 115.503 133.93 119.174 133.93 123.914V142.234C133.956 146.245 134.516 149.279 135.609 151.336V152H124.203ZM114.867 144.148C116.534 144.148 118.07 143.784 119.477 143.055C120.883 142.299 121.924 141.297 122.602 140.047V132.781H118.383C112.732 132.781 109.724 134.734 109.359 138.641L109.32 139.305C109.32 140.711 109.815 141.87 110.805 142.781C111.794 143.693 113.148 144.148 114.867 144.148ZM140.844 130.555C140.844 123.966 142.315 118.719 145.258 114.812C148.227 110.906 152.276 108.953 157.406 108.953C161.521 108.953 164.919 110.49 167.602 113.562V92H178.93V152H168.734L168.188 147.508C165.375 151.023 161.755 152.781 157.328 152.781C152.354 152.781 148.357 150.828 145.336 146.922C142.341 142.99 140.844 137.534 140.844 130.555ZM152.133 131.375C152.133 135.333 152.823 138.367 154.203 140.477C155.583 142.586 157.589 143.641 160.219 143.641C163.708 143.641 166.169 142.169 167.602 139.227V122.547C166.195 119.604 163.76 118.133 160.297 118.133C154.854 118.133 152.133 122.547 152.133 131.375ZM203.461 136.023L211.273 109.734H223.383L206.391 158.562L205.453 160.789C202.927 166.31 198.76 169.07 192.953 169.07C191.312 169.07 189.646 168.823 187.953 168.328V159.773L189.672 159.812C191.807 159.812 193.396 159.487 194.438 158.836C195.505 158.185 196.339 157.104 196.938 155.594L198.266 152.117L183.461 109.734H195.609L203.461 136.023ZM261.273 99.3438V109.734H268.5V118.016H261.273V139.109C261.273 140.672 261.573 141.792 262.172 142.469C262.771 143.146 263.917 143.484 265.609 143.484C266.859 143.484 267.966 143.393 268.93 143.211V151.766C266.716 152.443 264.438 152.781 262.094 152.781C254.177 152.781 250.141 148.784 249.984 140.789V118.016H243.812V109.734H249.984V99.3438H261.273ZM271.859 130.477C271.859 126.284 272.667 122.547 274.281 119.266C275.896 115.984 278.214 113.445 281.234 111.648C284.281 109.852 287.81 108.953 291.82 108.953C297.523 108.953 302.172 110.698 305.766 114.188C309.385 117.677 311.404 122.417 311.82 128.406L311.898 131.297C311.898 137.781 310.089 142.99 306.469 146.922C302.849 150.828 297.992 152.781 291.898 152.781C285.805 152.781 280.935 150.828 277.289 146.922C273.669 143.016 271.859 137.703 271.859 130.984V130.477ZM283.148 131.297C283.148 135.307 283.904 138.38 285.414 140.516C286.924 142.625 289.086 143.68 291.898 143.68C294.633 143.68 296.768 142.638 298.305 140.555C299.841 138.445 300.609 135.086 300.609 130.477C300.609 126.544 299.841 123.497 298.305 121.336C296.768 119.174 294.607 118.094 291.82 118.094C289.06 118.094 286.924 119.174 285.414 121.336C283.904 123.471 283.148 126.792 283.148 131.297ZM384.164 133.055C383.721 139.174 381.456 143.992 377.367 147.508C373.305 151.023 367.94 152.781 361.273 152.781C353.982 152.781 348.24 150.333 344.047 145.438C339.88 140.516 337.797 133.771 337.797 125.203V121.727C337.797 116.258 338.76 111.44 340.688 107.273C342.615 103.107 345.362 99.9167 348.93 97.7031C352.523 95.4635 356.69 94.3438 361.43 94.3438C367.992 94.3438 373.279 96.1016 377.289 99.6172C381.299 103.133 383.617 108.068 384.242 114.422H372.523C372.237 110.75 371.208 108.094 369.438 106.453C367.693 104.786 365.023 103.953 361.43 103.953C357.523 103.953 354.594 105.359 352.641 108.172C350.714 110.958 349.724 115.294 349.672 121.18V125.477C349.672 131.622 350.596 136.115 352.445 138.953C354.32 141.792 357.263 143.211 361.273 143.211C364.893 143.211 367.589 142.391 369.359 140.75C371.156 139.083 372.185 136.518 372.445 133.055H384.164ZM389.359 130.477C389.359 126.284 390.167 122.547 391.781 119.266C393.396 115.984 395.714 113.445 398.734 111.648C401.781 109.852 405.31 108.953 409.32 108.953C415.023 108.953 419.672 110.698 423.266 114.188C426.885 117.677 428.904 122.417 429.32 128.406L429.398 131.297C429.398 137.781 427.589 142.99 423.969 146.922C420.349 150.828 415.492 152.781 409.398 152.781C403.305 152.781 398.435 150.828 394.789 146.922C391.169 143.016 389.359 137.703 389.359 130.984V130.477ZM400.648 131.297C400.648 135.307 401.404 138.38 402.914 140.516C404.424 142.625 406.586 143.68 409.398 143.68C412.133 143.68 414.268 142.638 415.805 140.555C417.341 138.445 418.109 135.086 418.109 130.477C418.109 126.544 417.341 123.497 415.805 121.336C414.268 119.174 412.107 118.094 409.32 118.094C406.56 118.094 404.424 119.174 402.914 121.336C401.404 123.471 400.648 126.792 400.648 131.297ZM434.594 130.555C434.594 123.966 436.065 118.719 439.008 114.812C441.977 110.906 446.026 108.953 451.156 108.953C455.271 108.953 458.669 110.49 461.352 113.562V92H472.68V152H462.484L461.938 147.508C459.125 151.023 455.505 152.781 451.078 152.781C446.104 152.781 442.107 150.828 439.086 146.922C436.091 142.99 434.594 137.534 434.594 130.555ZM445.883 131.375C445.883 135.333 446.573 138.367 447.953 140.477C449.333 142.586 451.339 143.641 453.969 143.641C457.458 143.641 459.919 142.169 461.352 139.227V122.547C459.945 119.604 457.51 118.133 454.047 118.133C448.604 118.133 445.883 122.547 445.883 131.375ZM500.883 152.781C494.685 152.781 489.633 150.88 485.727 147.078C481.846 143.276 479.906 138.211 479.906 131.883V130.789C479.906 126.544 480.727 122.755 482.367 119.422C484.008 116.062 486.326 113.484 489.32 111.688C492.341 109.865 495.779 108.953 499.633 108.953C505.414 108.953 509.958 110.776 513.266 114.422C516.599 118.068 518.266 123.237 518.266 129.93V134.539H491.352C491.716 137.299 492.81 139.513 494.633 141.18C496.482 142.846 498.812 143.68 501.625 143.68C505.974 143.68 509.372 142.104 511.82 138.953L517.367 145.164C515.674 147.56 513.383 149.435 510.492 150.789C507.602 152.117 504.398 152.781 500.883 152.781ZM499.594 118.094C497.354 118.094 495.531 118.849 494.125 120.359C492.745 121.87 491.859 124.031 491.469 126.844H507.172V125.945C507.12 123.445 506.443 121.518 505.141 120.164C503.839 118.784 501.99 118.094 499.594 118.094ZM525.297 146.453C525.297 144.656 525.896 143.198 527.094 142.078C528.318 140.958 529.841 140.398 531.664 140.398C533.513 140.398 535.036 140.958 536.234 142.078C537.458 143.198 538.07 144.656 538.07 146.453C538.07 148.224 537.471 149.669 536.273 150.789C535.076 151.883 533.539 152.43 531.664 152.43C529.815 152.43 528.292 151.883 527.094 150.789C525.896 149.669 525.297 148.224 525.297 146.453Z" fill="#12100C"/>
<g filter="url(#filter0_d_1_218)">
<path d="M1 334C1 325.163 8.16344 318 17 318H145C153.837 318 161 325.163 161 334V348C161 356.837 153.837 364 145 364H17C8.16345 364 1 356.837 1 348V334Z" fill="#FFAE33"/>
</g>
<path d="M58.3066 335.339H54.3867V346H51.75V335.339H47.8828V333.203H58.3066V335.339ZM64.415 338.872C64.0693 338.825 63.7646 338.802 63.501 338.802C62.54 338.802 61.9102 339.127 61.6113 339.777V346H59.0713V336.49H61.4707L61.541 337.624C62.0508 336.751 62.7568 336.314 63.6592 336.314C63.9404 336.314 64.2041 336.353 64.4502 336.429L64.415 338.872ZM69.3545 342.405L71.1123 336.49H73.8369L70.0137 347.477L69.8027 347.978C69.2344 349.22 68.2969 349.841 66.9902 349.841C66.6211 349.841 66.2461 349.785 65.8652 349.674V347.749L66.252 347.758C66.7324 347.758 67.0898 347.685 67.3242 347.538C67.5645 347.392 67.752 347.148 67.8867 346.809L68.1855 346.026L64.8545 336.49H67.5879L69.3545 342.405ZM89.8945 346H87.2578L82.125 337.58V346H79.4883V333.203H82.125L87.2666 341.641V333.203H89.8945V346ZM91.6348 341.157C91.6348 340.214 91.8164 339.373 92.1797 338.635C92.543 337.896 93.0645 337.325 93.7441 336.921C94.4297 336.517 95.2236 336.314 96.126 336.314C97.4092 336.314 98.4551 336.707 99.2637 337.492C100.078 338.277 100.532 339.344 100.626 340.691L100.644 341.342C100.644 342.801 100.236 343.973 99.4219 344.857C98.6074 345.736 97.5146 346.176 96.1436 346.176C94.7725 346.176 93.6768 345.736 92.8564 344.857C92.042 343.979 91.6348 342.783 91.6348 341.271V341.157ZM94.1748 341.342C94.1748 342.244 94.3447 342.936 94.6846 343.416C95.0244 343.891 95.5107 344.128 96.1436 344.128C96.7588 344.128 97.2393 343.894 97.585 343.425C97.9307 342.95 98.1035 342.194 98.1035 341.157C98.1035 340.272 97.9307 339.587 97.585 339.101C97.2393 338.614 96.7529 338.371 96.126 338.371C95.5049 338.371 95.0244 338.614 94.6846 339.101C94.3447 339.581 94.1748 340.328 94.1748 341.342ZM110.479 342.546L111.727 336.49H114.179L111.753 346H109.626L107.824 340.015L106.022 346H103.904L101.479 336.49H103.931L105.17 342.537L106.91 336.49H108.747L110.479 342.546Z" fill="#12100C"/>
<path d="M189.672 353.93C188.385 353.56 187.448 353.107 186.859 352.57C186.276 352.029 185.984 351.362 185.984 350.57C185.984 349.674 186.341 348.935 187.055 348.352C187.773 347.763 188.706 347.469 189.852 347.469C190.633 347.469 191.328 347.62 191.938 347.922C192.552 348.224 193.026 348.641 193.359 349.172C193.698 349.703 193.867 350.284 193.867 350.914H192.359C192.359 350.227 192.141 349.688 191.703 349.297C191.266 348.901 190.648 348.703 189.852 348.703C189.112 348.703 188.534 348.867 188.117 349.195C187.706 349.518 187.5 349.969 187.5 350.547C187.5 351.01 187.695 351.404 188.086 351.727C188.482 352.044 189.151 352.336 190.094 352.602C191.042 352.867 191.781 353.161 192.312 353.484C192.849 353.802 193.245 354.174 193.5 354.602C193.76 355.029 193.891 355.531 193.891 356.109C193.891 357.031 193.531 357.771 192.812 358.328C192.094 358.88 191.133 359.156 189.93 359.156C189.148 359.156 188.419 359.008 187.742 358.711C187.065 358.409 186.542 357.997 186.172 357.477C185.807 356.956 185.625 356.365 185.625 355.703H187.133C187.133 356.391 187.385 356.935 187.891 357.336C188.401 357.732 189.081 357.93 189.93 357.93C190.721 357.93 191.328 357.768 191.75 357.445C192.172 357.122 192.383 356.682 192.383 356.125C192.383 355.568 192.188 355.138 191.797 354.836C191.406 354.529 190.698 354.227 189.672 353.93ZM197.555 348.5V350.547H199.133V351.664H197.555V356.906C197.555 357.245 197.625 357.5 197.766 357.672C197.906 357.839 198.146 357.922 198.484 357.922C198.651 357.922 198.88 357.891 199.172 357.828V359C198.792 359.104 198.422 359.156 198.062 359.156C197.417 359.156 196.93 358.961 196.602 358.57C196.273 358.18 196.109 357.625 196.109 356.906V351.664H194.57V350.547H196.109V348.5H197.555ZM206.047 359C205.964 358.833 205.896 358.536 205.844 358.109C205.172 358.807 204.37 359.156 203.438 359.156C202.604 359.156 201.919 358.922 201.383 358.453C200.852 357.979 200.586 357.38 200.586 356.656C200.586 355.776 200.919 355.094 201.586 354.609C202.258 354.12 203.201 353.875 204.414 353.875H205.82V353.211C205.82 352.706 205.669 352.305 205.367 352.008C205.065 351.706 204.62 351.555 204.031 351.555C203.516 351.555 203.083 351.685 202.734 351.945C202.385 352.206 202.211 352.521 202.211 352.891H200.758C200.758 352.469 200.906 352.062 201.203 351.672C201.505 351.276 201.911 350.964 202.422 350.734C202.938 350.505 203.503 350.391 204.117 350.391C205.091 350.391 205.854 350.635 206.406 351.125C206.958 351.609 207.245 352.279 207.266 353.133V357.023C207.266 357.799 207.365 358.417 207.562 358.875V359H206.047ZM203.648 357.898C204.102 357.898 204.531 357.781 204.938 357.547C205.344 357.312 205.638 357.008 205.82 356.633V354.898H204.688C202.917 354.898 202.031 355.417 202.031 356.453C202.031 356.906 202.182 357.26 202.484 357.516C202.786 357.771 203.174 357.898 203.648 357.898ZM213.617 351.844C213.398 351.807 213.161 351.789 212.906 351.789C211.958 351.789 211.315 352.193 210.977 353V359H209.531V350.547H210.938L210.961 351.523C211.435 350.768 212.107 350.391 212.977 350.391C213.258 350.391 213.471 350.427 213.617 350.5V351.844ZM217.305 348.5V350.547H218.883V351.664H217.305V356.906C217.305 357.245 217.375 357.5 217.516 357.672C217.656 357.839 217.896 357.922 218.234 357.922C218.401 357.922 218.63 357.891 218.922 357.828V359C218.542 359.104 218.172 359.156 217.812 359.156C217.167 359.156 216.68 358.961 216.352 358.57C216.023 358.18 215.859 357.625 215.859 356.906V351.664H214.32V350.547H215.859V348.5H217.305ZM225.258 359V351.664H223.922V350.547H225.258V349.68C225.258 348.773 225.5 348.073 225.984 347.578C226.469 347.083 227.154 346.836 228.039 346.836C228.372 346.836 228.703 346.88 229.031 346.969L228.953 348.141C228.708 348.094 228.448 348.07 228.172 348.07C227.703 348.07 227.341 348.208 227.086 348.484C226.831 348.755 226.703 349.146 226.703 349.656V350.547H228.508V351.664H226.703V359H225.258ZM234.195 351.844C233.977 351.807 233.74 351.789 233.484 351.789C232.536 351.789 231.893 352.193 231.555 353V359H230.109V350.547H231.516L231.539 351.523C232.013 350.768 232.685 350.391 233.555 350.391C233.836 350.391 234.049 350.427 234.195 350.5V351.844ZM234.992 354.695C234.992 353.867 235.154 353.122 235.477 352.461C235.805 351.799 236.258 351.289 236.836 350.93C237.419 350.57 238.083 350.391 238.828 350.391C239.979 350.391 240.909 350.789 241.617 351.586C242.331 352.383 242.688 353.443 242.688 354.766V354.867C242.688 355.69 242.529 356.43 242.211 357.086C241.898 357.737 241.448 358.245 240.859 358.609C240.276 358.974 239.604 359.156 238.844 359.156C237.698 359.156 236.768 358.758 236.055 357.961C235.346 357.164 234.992 356.109 234.992 354.797V354.695ZM236.445 354.867C236.445 355.805 236.661 356.557 237.094 357.125C237.531 357.693 238.115 357.977 238.844 357.977C239.578 357.977 240.161 357.69 240.594 357.117C241.026 356.539 241.242 355.732 241.242 354.695C241.242 353.768 241.021 353.018 240.578 352.445C240.141 351.867 239.557 351.578 238.828 351.578C238.115 351.578 237.539 351.862 237.102 352.43C236.664 352.997 236.445 353.81 236.445 354.867ZM245.859 350.547L245.898 351.484C246.518 350.755 247.354 350.391 248.406 350.391C249.589 350.391 250.393 350.844 250.82 351.75C251.102 351.344 251.466 351.016 251.914 350.766C252.367 350.516 252.901 350.391 253.516 350.391C255.37 350.391 256.312 351.372 256.344 353.336V359H254.898V353.422C254.898 352.818 254.76 352.367 254.484 352.07C254.208 351.768 253.745 351.617 253.094 351.617C252.557 351.617 252.112 351.779 251.758 352.102C251.404 352.419 251.198 352.849 251.141 353.391V359H249.688V353.461C249.688 352.232 249.086 351.617 247.883 351.617C246.935 351.617 246.286 352.021 245.938 352.828V359H244.492V350.547H245.859ZM267.719 359C267.635 358.833 267.568 358.536 267.516 358.109C266.844 358.807 266.042 359.156 265.109 359.156C264.276 359.156 263.591 358.922 263.055 358.453C262.523 357.979 262.258 357.38 262.258 356.656C262.258 355.776 262.591 355.094 263.258 354.609C263.93 354.12 264.872 353.875 266.086 353.875H267.492V353.211C267.492 352.706 267.341 352.305 267.039 352.008C266.737 351.706 266.292 351.555 265.703 351.555C265.188 351.555 264.755 351.685 264.406 351.945C264.057 352.206 263.883 352.521 263.883 352.891H262.43C262.43 352.469 262.578 352.062 262.875 351.672C263.177 351.276 263.583 350.964 264.094 350.734C264.609 350.505 265.174 350.391 265.789 350.391C266.763 350.391 267.526 350.635 268.078 351.125C268.63 351.609 268.917 352.279 268.938 353.133V357.023C268.938 357.799 269.036 358.417 269.234 358.875V359H267.719ZM265.32 357.898C265.773 357.898 266.203 357.781 266.609 357.547C267.016 357.312 267.31 357.008 267.492 356.633V354.898H266.359C264.589 354.898 263.703 355.417 263.703 356.453C263.703 356.906 263.854 357.26 264.156 357.516C264.458 357.771 264.846 357.898 265.32 357.898ZM272.57 350.547L272.617 351.609C273.263 350.797 274.107 350.391 275.148 350.391C276.935 350.391 277.836 351.398 277.852 353.414V359H276.406V353.406C276.401 352.797 276.26 352.346 275.984 352.055C275.714 351.763 275.289 351.617 274.711 351.617C274.242 351.617 273.831 351.742 273.477 351.992C273.122 352.242 272.846 352.57 272.648 352.977V359H271.203V350.547H272.57ZM282.797 356.883L284.766 350.547H286.312L282.914 360.305C282.388 361.711 281.552 362.414 280.406 362.414L280.133 362.391L279.594 362.289V361.117L279.984 361.148C280.474 361.148 280.854 361.049 281.125 360.852C281.401 360.654 281.628 360.292 281.805 359.766L282.125 358.906L279.109 350.547H280.688L282.797 356.883ZM300.203 357.508C299.818 358.06 299.279 358.474 298.586 358.75C297.898 359.021 297.096 359.156 296.18 359.156C295.253 359.156 294.43 358.94 293.711 358.508C292.992 358.07 292.435 357.451 292.039 356.648C291.648 355.846 291.448 354.917 291.438 353.859V352.867C291.438 351.154 291.836 349.826 292.633 348.883C293.435 347.94 294.56 347.469 296.008 347.469C297.195 347.469 298.151 347.773 298.875 348.383C299.599 348.987 300.042 349.846 300.203 350.961H298.703C298.422 349.456 297.526 348.703 296.016 348.703C295.01 348.703 294.247 349.057 293.727 349.766C293.211 350.469 292.951 351.49 292.945 352.828V353.758C292.945 355.034 293.237 356.049 293.82 356.805C294.404 357.555 295.193 357.93 296.188 357.93C296.75 357.93 297.242 357.867 297.664 357.742C298.086 357.617 298.435 357.406 298.711 357.109V354.555H296.078V353.336H300.203V357.508ZM304.055 359H302.609V350.547H304.055V359ZM302.492 348.305C302.492 348.07 302.562 347.872 302.703 347.711C302.849 347.549 303.062 347.469 303.344 347.469C303.625 347.469 303.839 347.549 303.984 347.711C304.13 347.872 304.203 348.07 304.203 348.305C304.203 348.539 304.13 348.734 303.984 348.891C303.839 349.047 303.625 349.125 303.344 349.125C303.062 349.125 302.849 349.047 302.703 348.891C302.562 348.734 302.492 348.539 302.492 348.305ZM308.336 348.5V350.547H309.914V351.664H308.336V356.906C308.336 357.245 308.406 357.5 308.547 357.672C308.688 357.839 308.927 357.922 309.266 357.922C309.432 357.922 309.661 357.891 309.953 357.828V359C309.573 359.104 309.203 359.156 308.844 359.156C308.198 359.156 307.711 358.961 307.383 358.57C307.055 358.18 306.891 357.625 306.891 356.906V351.664H305.352V350.547H306.891V348.5H308.336ZM318.969 357.977C319.484 357.977 319.935 357.82 320.32 357.508C320.706 357.195 320.919 356.805 320.961 356.336H322.328C322.302 356.82 322.135 357.281 321.828 357.719C321.521 358.156 321.109 358.505 320.594 358.766C320.083 359.026 319.542 359.156 318.969 359.156C317.818 359.156 316.901 358.773 316.219 358.008C315.542 357.237 315.203 356.185 315.203 354.852V354.609C315.203 353.786 315.354 353.055 315.656 352.414C315.958 351.773 316.391 351.276 316.953 350.922C317.521 350.568 318.19 350.391 318.961 350.391C319.909 350.391 320.695 350.674 321.32 351.242C321.951 351.81 322.286 352.547 322.328 353.453H320.961C320.919 352.906 320.711 352.458 320.336 352.109C319.966 351.755 319.508 351.578 318.961 351.578C318.227 351.578 317.656 351.844 317.25 352.375C316.849 352.901 316.648 353.664 316.648 354.664V354.938C316.648 355.911 316.849 356.661 317.25 357.188C317.651 357.714 318.224 357.977 318.969 357.977ZM323.57 354.695C323.57 353.867 323.732 353.122 324.055 352.461C324.383 351.799 324.836 351.289 325.414 350.93C325.997 350.57 326.661 350.391 327.406 350.391C328.557 350.391 329.487 350.789 330.195 351.586C330.909 352.383 331.266 353.443 331.266 354.766V354.867C331.266 355.69 331.107 356.43 330.789 357.086C330.477 357.737 330.026 358.245 329.438 358.609C328.854 358.974 328.182 359.156 327.422 359.156C326.276 359.156 325.346 358.758 324.633 357.961C323.924 357.164 323.57 356.109 323.57 354.797V354.695ZM325.023 354.867C325.023 355.805 325.24 356.557 325.672 357.125C326.109 357.693 326.693 357.977 327.422 357.977C328.156 357.977 328.74 357.69 329.172 357.117C329.604 356.539 329.82 355.732 329.82 354.695C329.82 353.768 329.599 353.018 329.156 352.445C328.719 351.867 328.135 351.578 327.406 351.578C326.693 351.578 326.117 351.862 325.68 352.43C325.242 352.997 325.023 353.81 325.023 354.867ZM334.445 350.547L334.492 351.609C335.138 350.797 335.982 350.391 337.023 350.391C338.81 350.391 339.711 351.398 339.727 353.414V359H338.281V353.406C338.276 352.797 338.135 352.346 337.859 352.055C337.589 351.763 337.164 351.617 336.586 351.617C336.117 351.617 335.706 351.742 335.352 351.992C334.997 352.242 334.721 352.57 334.523 352.977V359H333.078V350.547H334.445ZM343.867 348.5V350.547H345.445V351.664H343.867V356.906C343.867 357.245 343.938 357.5 344.078 357.672C344.219 357.839 344.458 357.922 344.797 357.922C344.964 357.922 345.193 357.891 345.484 357.828V359C345.104 359.104 344.734 359.156 344.375 359.156C343.729 359.156 343.242 358.961 342.914 358.57C342.586 358.18 342.422 357.625 342.422 356.906V351.664H340.883V350.547H342.422V348.5H343.867ZM350.648 359.156C349.503 359.156 348.57 358.781 347.852 358.031C347.133 357.276 346.773 356.268 346.773 355.008V354.742C346.773 353.904 346.932 353.156 347.25 352.5C347.573 351.839 348.021 351.323 348.594 350.953C349.172 350.578 349.797 350.391 350.469 350.391C351.568 350.391 352.422 350.753 353.031 351.477C353.641 352.201 353.945 353.237 353.945 354.586V355.188H348.219C348.24 356.021 348.482 356.695 348.945 357.211C349.414 357.721 350.008 357.977 350.727 357.977C351.237 357.977 351.669 357.872 352.023 357.664C352.378 357.456 352.688 357.18 352.953 356.836L353.836 357.523C353.128 358.612 352.065 359.156 350.648 359.156ZM350.469 351.578C349.885 351.578 349.396 351.792 349 352.219C348.604 352.641 348.359 353.234 348.266 354H352.5V353.891C352.458 353.156 352.26 352.589 351.906 352.188C351.552 351.781 351.073 351.578 350.469 351.578ZM358.461 353.633L360.336 350.547H362.023L359.258 354.727L362.109 359H360.438L358.484 355.836L356.531 359H354.852L357.703 354.727L354.938 350.547H356.609L358.461 353.633ZM365.523 348.5V350.547H367.102V351.664H365.523V356.906C365.523 357.245 365.594 357.5 365.734 357.672C365.875 357.839 366.115 357.922 366.453 357.922C366.62 357.922 366.849 357.891 367.141 357.828V359C366.76 359.104 366.391 359.156 366.031 359.156C365.385 359.156 364.898 358.961 364.57 358.57C364.242 358.18 364.078 357.625 364.078 356.906V351.664H362.539V350.547H364.078V348.5H365.523ZM368.828 358.242C368.828 357.992 368.901 357.784 369.047 357.617C369.198 357.451 369.422 357.367 369.719 357.367C370.016 357.367 370.24 357.451 370.391 357.617C370.547 357.784 370.625 357.992 370.625 358.242C370.625 358.482 370.547 358.682 370.391 358.844C370.24 359.005 370.016 359.086 369.719 359.086C369.422 359.086 369.198 359.005 369.047 358.844C368.901 358.682 368.828 358.482 368.828 358.242Z" fill="#12100C" fill-opacity="0.7"/>
<path d="M195.07 329.68C195.07 330.794 194.883 331.768 194.508 332.602C194.133 333.43 193.602 334.062 192.914 334.5C192.227 334.938 191.424 335.156 190.508 335.156C189.612 335.156 188.818 334.938 188.125 334.5C187.432 334.057 186.893 333.43 186.508 332.617C186.128 331.799 185.932 330.854 185.922 329.781V328.961C185.922 327.867 186.112 326.901 186.492 326.062C186.872 325.224 187.409 324.583 188.102 324.141C188.799 323.693 189.596 323.469 190.492 323.469C191.404 323.469 192.206 323.69 192.898 324.133C193.596 324.57 194.133 325.208 194.508 326.047C194.883 326.88 195.07 327.852 195.07 328.961V329.68ZM193.578 328.945C193.578 327.596 193.307 326.562 192.766 325.844C192.224 325.12 191.466 324.758 190.492 324.758C189.544 324.758 188.797 325.12 188.25 325.844C187.708 326.562 187.43 327.562 187.414 328.844V329.68C187.414 330.987 187.688 332.016 188.234 332.766C188.786 333.51 189.544 333.883 190.508 333.883C191.477 333.883 192.227 333.531 192.758 332.828C193.289 332.12 193.562 331.107 193.578 329.789V328.945ZM204.234 330.867C204.234 332.154 203.94 333.19 203.352 333.977C202.763 334.763 201.966 335.156 200.961 335.156C199.935 335.156 199.128 334.831 198.539 334.18V338.25H197.094V326.547H198.414L198.484 327.484C199.073 326.755 199.891 326.391 200.938 326.391C201.953 326.391 202.755 326.773 203.344 327.539C203.938 328.305 204.234 329.37 204.234 330.734V330.867ZM202.789 330.703C202.789 329.75 202.586 328.997 202.18 328.445C201.773 327.893 201.216 327.617 200.508 327.617C199.633 327.617 198.977 328.005 198.539 328.781V332.82C198.971 333.591 199.633 333.977 200.523 333.977C201.216 333.977 201.766 333.703 202.172 333.156C202.583 332.604 202.789 331.786 202.789 330.703ZM209.586 335.156C208.44 335.156 207.508 334.781 206.789 334.031C206.07 333.276 205.711 332.268 205.711 331.008V330.742C205.711 329.904 205.87 329.156 206.188 328.5C206.51 327.839 206.958 327.323 207.531 326.953C208.109 326.578 208.734 326.391 209.406 326.391C210.505 326.391 211.359 326.753 211.969 327.477C212.578 328.201 212.883 329.237 212.883 330.586V331.188H207.156C207.177 332.021 207.419 332.695 207.883 333.211C208.352 333.721 208.945 333.977 209.664 333.977C210.174 333.977 210.607 333.872 210.961 333.664C211.315 333.456 211.625 333.18 211.891 332.836L212.773 333.523C212.065 334.612 211.003 335.156 209.586 335.156ZM209.406 327.578C208.823 327.578 208.333 327.792 207.938 328.219C207.542 328.641 207.297 329.234 207.203 330H211.438V329.891C211.396 329.156 211.198 328.589 210.844 328.188C210.49 327.781 210.01 327.578 209.406 327.578ZM215.93 326.547L215.977 327.609C216.622 326.797 217.466 326.391 218.508 326.391C220.294 326.391 221.195 327.398 221.211 329.414V335H219.766V329.406C219.76 328.797 219.62 328.346 219.344 328.055C219.073 327.763 218.648 327.617 218.07 327.617C217.602 327.617 217.19 327.742 216.836 327.992C216.482 328.242 216.206 328.57 216.008 328.977V335H214.562V326.547H215.93ZM232.578 335C232.495 334.833 232.427 334.536 232.375 334.109C231.703 334.807 230.901 335.156 229.969 335.156C229.135 335.156 228.451 334.922 227.914 334.453C227.383 333.979 227.117 333.38 227.117 332.656C227.117 331.776 227.451 331.094 228.117 330.609C228.789 330.12 229.732 329.875 230.945 329.875H232.352V329.211C232.352 328.706 232.201 328.305 231.898 328.008C231.596 327.706 231.151 327.555 230.562 327.555C230.047 327.555 229.615 327.685 229.266 327.945C228.917 328.206 228.742 328.521 228.742 328.891H227.289C227.289 328.469 227.438 328.062 227.734 327.672C228.036 327.276 228.443 326.964 228.953 326.734C229.469 326.505 230.034 326.391 230.648 326.391C231.622 326.391 232.385 326.635 232.938 327.125C233.49 327.609 233.776 328.279 233.797 329.133V333.023C233.797 333.799 233.896 334.417 234.094 334.875V335H232.578ZM230.18 333.898C230.633 333.898 231.062 333.781 231.469 333.547C231.875 333.312 232.169 333.008 232.352 332.633V330.898H231.219C229.448 330.898 228.562 331.417 228.562 332.453C228.562 332.906 228.714 333.26 229.016 333.516C229.318 333.771 229.706 333.898 230.18 333.898ZM247.516 333.008L249.141 326.547H250.586L248.125 335H246.953L244.898 328.594L242.898 335H241.727L239.273 326.547H240.711L242.375 332.875L244.344 326.547H245.508L247.516 333.008ZM251.68 330.695C251.68 329.867 251.841 329.122 252.164 328.461C252.492 327.799 252.945 327.289 253.523 326.93C254.107 326.57 254.771 326.391 255.516 326.391C256.667 326.391 257.596 326.789 258.305 327.586C259.018 328.383 259.375 329.443 259.375 330.766V330.867C259.375 331.69 259.216 332.43 258.898 333.086C258.586 333.737 258.135 334.245 257.547 334.609C256.964 334.974 256.292 335.156 255.531 335.156C254.385 335.156 253.456 334.758 252.742 333.961C252.034 333.164 251.68 332.109 251.68 330.797V330.695ZM253.133 330.867C253.133 331.805 253.349 332.557 253.781 333.125C254.219 333.693 254.802 333.977 255.531 333.977C256.266 333.977 256.849 333.69 257.281 333.117C257.714 332.539 257.93 331.732 257.93 330.695C257.93 329.768 257.708 329.018 257.266 328.445C256.828 327.867 256.245 327.578 255.516 327.578C254.802 327.578 254.227 327.862 253.789 328.43C253.352 328.997 253.133 329.81 253.133 330.867ZM265.273 327.844C265.055 327.807 264.818 327.789 264.562 327.789C263.615 327.789 262.971 328.193 262.633 329V335H261.188V326.547H262.594L262.617 327.523C263.091 326.768 263.763 326.391 264.633 326.391C264.914 326.391 265.128 326.427 265.273 326.5V327.844ZM268.969 331.086L268.062 332.031V335H266.617V323H268.062V330.258L268.836 329.328L271.469 326.547H273.227L269.938 330.078L273.609 335H271.914L268.969 331.086ZM279.641 332.758C279.641 332.367 279.492 332.065 279.195 331.852C278.904 331.633 278.391 331.445 277.656 331.289C276.927 331.133 276.346 330.945 275.914 330.727C275.487 330.508 275.169 330.247 274.961 329.945C274.758 329.643 274.656 329.284 274.656 328.867C274.656 328.174 274.948 327.589 275.531 327.109C276.12 326.63 276.87 326.391 277.781 326.391C278.74 326.391 279.516 326.638 280.109 327.133C280.708 327.628 281.008 328.26 281.008 329.031H279.555C279.555 328.635 279.385 328.294 279.047 328.008C278.714 327.721 278.292 327.578 277.781 327.578C277.255 327.578 276.844 327.693 276.547 327.922C276.25 328.151 276.102 328.451 276.102 328.82C276.102 329.169 276.24 329.432 276.516 329.609C276.792 329.786 277.289 329.956 278.008 330.117C278.732 330.279 279.318 330.471 279.766 330.695C280.214 330.919 280.544 331.19 280.758 331.508C280.977 331.82 281.086 332.203 281.086 332.656C281.086 333.411 280.784 334.018 280.18 334.477C279.576 334.93 278.792 335.156 277.828 335.156C277.151 335.156 276.552 335.036 276.031 334.797C275.51 334.557 275.102 334.224 274.805 333.797C274.513 333.365 274.367 332.898 274.367 332.398H275.812C275.839 332.883 276.031 333.268 276.391 333.555C276.755 333.836 277.234 333.977 277.828 333.977C278.375 333.977 278.812 333.867 279.141 333.648C279.474 333.424 279.641 333.128 279.641 332.758ZM290.109 330.867C290.109 332.154 289.815 333.19 289.227 333.977C288.638 334.763 287.841 335.156 286.836 335.156C285.81 335.156 285.003 334.831 284.414 334.18V338.25H282.969V326.547H284.289L284.359 327.484C284.948 326.755 285.766 326.391 286.812 326.391C287.828 326.391 288.63 326.773 289.219 327.539C289.812 328.305 290.109 329.37 290.109 330.734V330.867ZM288.664 330.703C288.664 329.75 288.461 328.997 288.055 328.445C287.648 327.893 287.091 327.617 286.383 327.617C285.508 327.617 284.852 328.005 284.414 328.781V332.82C284.846 333.591 285.508 333.977 286.398 333.977C287.091 333.977 287.641 333.703 288.047 333.156C288.458 332.604 288.664 331.786 288.664 330.703ZM297.172 335C297.089 334.833 297.021 334.536 296.969 334.109C296.297 334.807 295.495 335.156 294.562 335.156C293.729 335.156 293.044 334.922 292.508 334.453C291.977 333.979 291.711 333.38 291.711 332.656C291.711 331.776 292.044 331.094 292.711 330.609C293.383 330.12 294.326 329.875 295.539 329.875H296.945V329.211C296.945 328.706 296.794 328.305 296.492 328.008C296.19 327.706 295.745 327.555 295.156 327.555C294.641 327.555 294.208 327.685 293.859 327.945C293.51 328.206 293.336 328.521 293.336 328.891H291.883C291.883 328.469 292.031 328.062 292.328 327.672C292.63 327.276 293.036 326.964 293.547 326.734C294.062 326.505 294.628 326.391 295.242 326.391C296.216 326.391 296.979 326.635 297.531 327.125C298.083 327.609 298.37 328.279 298.391 329.133V333.023C298.391 333.799 298.49 334.417 298.688 334.875V335H297.172ZM294.773 333.898C295.227 333.898 295.656 333.781 296.062 333.547C296.469 333.312 296.763 333.008 296.945 332.633V330.898H295.812C294.042 330.898 293.156 331.417 293.156 332.453C293.156 332.906 293.307 333.26 293.609 333.516C293.911 333.771 294.299 333.898 294.773 333.898ZM304.047 333.977C304.562 333.977 305.013 333.82 305.398 333.508C305.784 333.195 305.997 332.805 306.039 332.336H307.406C307.38 332.82 307.214 333.281 306.906 333.719C306.599 334.156 306.188 334.505 305.672 334.766C305.161 335.026 304.62 335.156 304.047 335.156C302.896 335.156 301.979 334.773 301.297 334.008C300.62 333.237 300.281 332.185 300.281 330.852V330.609C300.281 329.786 300.432 329.055 300.734 328.414C301.036 327.773 301.469 327.276 302.031 326.922C302.599 326.568 303.268 326.391 304.039 326.391C304.987 326.391 305.773 326.674 306.398 327.242C307.029 327.81 307.365 328.547 307.406 329.453H306.039C305.997 328.906 305.789 328.458 305.414 328.109C305.044 327.755 304.586 327.578 304.039 327.578C303.305 327.578 302.734 327.844 302.328 328.375C301.927 328.901 301.727 329.664 301.727 330.664V330.938C301.727 331.911 301.927 332.661 302.328 333.188C302.729 333.714 303.302 333.977 304.047 333.977ZM312.539 335.156C311.393 335.156 310.461 334.781 309.742 334.031C309.023 333.276 308.664 332.268 308.664 331.008V330.742C308.664 329.904 308.823 329.156 309.141 328.5C309.464 327.839 309.911 327.323 310.484 326.953C311.062 326.578 311.688 326.391 312.359 326.391C313.458 326.391 314.312 326.753 314.922 327.477C315.531 328.201 315.836 329.237 315.836 330.586V331.188H310.109C310.13 332.021 310.372 332.695 310.836 333.211C311.305 333.721 311.898 333.977 312.617 333.977C313.128 333.977 313.56 333.872 313.914 333.664C314.268 333.456 314.578 333.18 314.844 332.836L315.727 333.523C315.018 334.612 313.956 335.156 312.539 335.156ZM312.359 327.578C311.776 327.578 311.286 327.792 310.891 328.219C310.495 328.641 310.25 329.234 310.156 330H314.391V329.891C314.349 329.156 314.151 328.589 313.797 328.188C313.443 327.781 312.964 327.578 312.359 327.578ZM317.547 334.242C317.547 333.992 317.62 333.784 317.766 333.617C317.917 333.451 318.141 333.367 318.438 333.367C318.734 333.367 318.958 333.451 319.109 333.617C319.266 333.784 319.344 333.992 319.344 334.242C319.344 334.482 319.266 334.682 319.109 334.844C318.958 335.005 318.734 335.086 318.438 335.086C318.141 335.086 317.917 335.005 317.766 334.844C317.62 334.682 317.547 334.482 317.547 334.242Z" fill="#12100C" fill-opacity="0.7"/>
<g clip-path="url(#clip0_1_218)">
<path fill-rule="evenodd" clip-rule="evenodd" d="M80.4999 382C77.0567 382 73.7259 383.256 71.1034 385.544C68.481 387.831 66.738 391.001 66.1864 394.486C65.6348 397.97 66.3106 401.543 68.0928 404.563C69.875 407.584 72.6474 409.855 75.9138 410.972C76.6391 411.102 76.9073 410.656 76.9073 410.266C76.9073 409.913 76.8891 408.738 76.8891 407.497C73.2461 408.184 72.3031 406.586 72.0133 405.75C71.6904 404.936 71.1788 404.215 70.523 403.649C70.0154 403.371 69.2901 402.683 70.5048 402.665C70.969 402.716 71.4142 402.882 71.8024 403.148C72.1906 403.414 72.5104 403.773 72.7344 404.193C72.9327 404.558 73.1994 404.879 73.519 405.139C73.8387 405.398 74.2052 405.59 74.5975 405.704C74.9897 405.818 75.4001 405.852 75.8049 405.803C76.2098 405.754 76.6013 405.624 76.957 405.419C77.0197 404.664 77.3481 403.957 77.881 403.431C74.652 403.059 71.283 401.778 71.283 396.091C71.2637 394.613 71.797 393.183 72.7734 392.095C72.33 390.811 72.3818 389.402 72.9183 388.155C72.9183 388.155 74.1329 387.765 76.9057 389.683C79.2784 389.014 81.7834 389.014 84.1561 389.683C86.9289 387.75 88.1435 388.155 88.1435 388.155C88.68 389.402 88.7318 390.811 88.2884 392.095C89.2678 393.181 89.8015 394.612 89.7788 396.091C89.7788 401.796 86.3891 403.059 83.1634 403.431C83.5094 403.791 83.7759 404.223 83.9448 404.697C84.1137 405.172 84.1809 405.678 84.142 406.182C84.142 408.17 84.1238 409.768 84.1238 410.27C84.1238 410.66 84.3954 411.125 85.1174 410.976C88.3802 409.853 91.1471 407.576 92.9238 404.554C94.7005 401.531 95.3713 397.959 94.8162 394.477C94.2612 390.994 92.5166 387.827 89.8941 385.541C87.2715 383.256 83.9418 382 80.4999 382V382Z" fill="#1B1F23"/>
</g>
<g clip-path="url(#clip1_1_218)">
<path d="M124.941 382C124.807 381.996 124.674 382.026 124.55 382.088C124.426 382.15 124.315 382.242 124.222 382.358C124.135 382.469 124.07 382.602 124.033 382.748C123.996 382.894 123.987 383.048 124.009 383.198L127.956 409.827C128.017 410.163 128.173 410.465 128.398 410.678C128.624 410.892 128.905 411.006 129.192 410.999H148.114C148.33 411.009 148.541 410.927 148.711 410.768C148.881 410.61 148.999 410.384 149.043 410.131L152.988 383.204C153.009 383.054 153 382.9 152.963 382.755C152.926 382.609 152.862 382.476 152.774 382.366C152.682 382.249 152.57 382.157 152.447 382.096C152.323 382.034 152.19 382.004 152.056 382.008L124.941 382ZM141.55 401.245H135.51L133.874 391.744H143.014L141.55 401.245Z" fill="#2684FF"/>
<path d="M151.732 391.744H143.013L141.55 401.245H135.51L128.379 410.654C128.61 410.873 128.896 410.993 129.192 410.995H148.119C148.335 411.005 148.546 410.923 148.716 410.764C148.886 410.605 149.004 410.379 149.048 410.127L151.732 391.744Z" fill="url(#paint0_linear_1_218)"/>
</g>
<g clip-path="url(#clip2_1_218)">
<path fill-rule="evenodd" clip-rule="evenodd" d="M37.9478 398.582L36.3247 393.161L33.1073 382.416C33.0649 382.293 32.9922 382.189 32.8985 382.115C32.8048 382.041 32.6944 382.002 32.5815 382.002C32.4685 382.002 32.3581 382.041 32.2645 382.115C32.1708 382.189 32.0981 382.293 32.0557 382.416L28.8383 393.161H18.1606L14.9432 382.416C14.9008 382.293 14.8281 382.189 14.7344 382.115C14.6408 382.041 14.5304 382.002 14.4174 382.002C14.3045 382.002 14.1941 382.041 14.1004 382.115C14.0067 382.189 13.934 382.293 13.8916 382.416L10.6742 393.161L9.05448 398.582C8.98345 398.826 8.98439 399.091 9.05713 399.334C9.12988 399.577 9.27024 399.785 9.45581 399.924L23.4999 411.001L37.5439 399.924C37.7295 399.785 37.8699 399.577 37.9426 399.334C38.0153 399.091 38.0163 398.826 37.9453 398.582" fill="#FC6D26"/>
<path fill-rule="evenodd" clip-rule="evenodd" d="M23.5004 411L28.8396 393.156H18.1603L23.5004 410.996V411Z" fill="#E24329"/>
<path fill-rule="evenodd" clip-rule="evenodd" d="M23.5004 411.001L18.1603 393.16H10.6773L23.5004 411.001Z" fill="#FC6D26"/>
<path fill-rule="evenodd" clip-rule="evenodd" d="M10.6764 393.16L9.05419 398.581C8.98316 398.825 8.9841 399.09 9.05684 399.333C9.12959 399.576 9.26995 399.784 9.45552 399.923L23.4996 411L10.6764 393.16Z" fill="#FCA326"/>
<path fill-rule="evenodd" clip-rule="evenodd" d="M10.6773 393.16H18.1612L14.9438 382.415C14.9014 382.292 14.8287 382.187 14.735 382.114C14.6413 382.04 14.5309 382 14.418 382C14.305 382 14.1946 382.04 14.1009 382.114C14.0073 382.187 13.9346 382.292 13.8922 382.415L10.6773 393.16Z" fill="#E24329"/>
<path fill-rule="evenodd" clip-rule="evenodd" d="M23.5004 411.001L28.8405 393.161H36.3244L23.5004 411.001Z" fill="#FC6D26"/>
<path fill-rule="evenodd" clip-rule="evenodd" d="M36.3235 393.16L37.9467 398.581C38.0177 398.825 38.0167 399.09 37.944 399.333C37.8713 399.576 37.7309 399.784 37.5453 399.923L23.5004 411L36.3235 393.16Z" fill="#FCA326"/>
<path fill-rule="evenodd" clip-rule="evenodd" d="M36.3235 393.16H28.8397L32.0571 382.415C32.0995 382.292 32.1722 382.187 32.2659 382.114C32.3595 382.04 32.4699 382 32.5829 382C32.6958 382 32.8062 382.04 32.8999 382.114C32.9936 382.187 33.0663 382.292 33.1087 382.415L36.3261 393.16H36.3235Z" fill="#E24329"/>
</g>
<path d="M7.71582 223.711C5.86654 223.18 4.51888 222.528 3.67285 221.757C2.83431 220.979 2.41504 220.02 2.41504 218.882C2.41504 217.595 2.9279 216.531 3.95361 215.693C4.98682 214.847 6.32699 214.424 7.97412 214.424C9.09717 214.424 10.0967 214.641 10.9727 215.075C11.8561 215.509 12.5374 216.108 13.0166 216.872C13.5033 217.636 13.7466 218.471 13.7466 219.376H11.5791C11.5791 218.388 11.2646 217.613 10.6357 217.052C10.0068 216.483 9.11963 216.198 7.97412 216.198C6.91097 216.198 6.07992 216.434 5.48096 216.906C4.88949 217.37 4.59375 218.018 4.59375 218.849C4.59375 219.515 4.87451 220.08 5.43604 220.544C6.00505 221.001 6.96712 221.42 8.32227 221.802C9.6849 222.184 10.748 222.607 11.5117 223.071C12.2829 223.528 12.8519 224.063 13.2188 224.677C13.5931 225.291 13.7803 226.014 13.7803 226.845C13.7803 228.17 13.2637 229.233 12.2305 230.034C11.1973 230.828 9.81592 231.225 8.08643 231.225C6.96338 231.225 5.9152 231.011 4.94189 230.584C3.96859 230.15 3.21615 229.559 2.68457 228.81C2.16048 228.061 1.89844 227.212 1.89844 226.261H4.06592C4.06592 227.249 4.42904 228.031 5.15527 228.608C5.889 229.177 6.86605 229.461 8.08643 229.461C9.22445 229.461 10.0967 229.229 10.7031 228.765C11.3096 228.301 11.6128 227.668 11.6128 226.867C11.6128 226.066 11.332 225.448 10.7705 225.014C10.209 224.572 9.19076 224.138 7.71582 223.711ZM26.4932 225.059C26.4932 226.908 26.0701 228.398 25.2241 229.529C24.3781 230.659 23.2326 231.225 21.7876 231.225C20.3127 231.225 19.1522 230.757 18.3062 229.821V235.672H16.2285V218.849H18.1265L18.2275 220.196C19.0736 219.148 20.249 218.624 21.7539 218.624C23.2139 218.624 24.3669 219.174 25.2129 220.275C26.0664 221.375 26.4932 222.907 26.4932 224.868V225.059ZM24.4155 224.823C24.4155 223.453 24.1235 222.371 23.5396 221.578C22.9556 220.784 22.1545 220.387 21.1362 220.387C19.8784 220.387 18.9351 220.945 18.3062 222.061V227.867C18.9276 228.975 19.8784 229.529 21.1587 229.529C22.1545 229.529 22.9443 229.136 23.5283 228.35C24.1198 227.556 24.4155 226.381 24.4155 224.823ZM31.4009 231H29.3232V218.849H31.4009V231ZM29.1548 215.625C29.1548 215.289 29.2559 215.004 29.458 214.772C29.6676 214.54 29.9746 214.424 30.3789 214.424C30.7832 214.424 31.0902 214.54 31.2998 214.772C31.5094 215.004 31.6143 215.289 31.6143 215.625C31.6143 215.962 31.5094 216.243 31.2998 216.468C31.0902 216.692 30.7832 216.805 30.3789 216.805C29.9746 216.805 29.6676 216.692 29.458 216.468C29.2559 216.243 29.1548 215.962 29.1548 215.625ZM36.7017 218.849L36.769 220.376C37.6974 219.208 38.9103 218.624 40.4077 218.624C42.9757 218.624 44.271 220.073 44.2935 222.97V231H42.2158V222.959C42.2083 222.083 42.0062 221.435 41.6094 221.016C41.2201 220.597 40.6099 220.387 39.7788 220.387C39.105 220.387 38.5135 220.567 38.0044 220.926C37.4953 221.286 37.0985 221.757 36.814 222.341V231H34.7363V218.849H36.7017ZM60.6338 229.798C59.8252 230.749 58.6385 231.225 57.0737 231.225C55.7785 231.225 54.7902 230.85 54.1089 230.102C53.4351 229.345 53.0944 228.23 53.0869 226.755V218.849H55.1646V226.699C55.1646 228.541 55.9132 229.461 57.4106 229.461C58.9979 229.461 60.0535 228.87 60.5776 227.687V218.849H62.6553V231H60.6787L60.6338 229.798ZM76.0869 225.059C76.0869 226.908 75.6639 228.398 74.8179 229.529C73.9718 230.659 72.8263 231.225 71.3813 231.225C69.9064 231.225 68.7459 230.757 67.8999 229.821V235.672H65.8223V218.849H67.7202L67.8213 220.196C68.6673 219.148 69.8428 218.624 71.3477 218.624C72.8076 218.624 73.9606 219.174 74.8066 220.275C75.6602 221.375 76.0869 222.907 76.0869 224.868V225.059ZM74.0093 224.823C74.0093 223.453 73.7173 222.371 73.1333 221.578C72.5493 220.784 71.7482 220.387 70.73 220.387C69.4722 220.387 68.5288 220.945 67.8999 222.061V227.867C68.5213 228.975 69.4722 229.529 70.7524 229.529C71.7482 229.529 72.5381 229.136 73.1221 228.35C73.7135 227.556 74.0093 226.381 74.0093 224.823ZM85.4644 231V220.455H83.5439V218.849H85.4644V217.602C85.4644 216.299 85.8125 215.292 86.5088 214.581C87.2051 213.87 88.1896 213.514 89.4624 213.514C89.9416 213.514 90.417 213.578 90.8887 213.705L90.7764 215.39C90.4245 215.322 90.0501 215.289 89.6533 215.289C88.9795 215.289 88.4591 215.487 88.0923 215.884C87.7254 216.273 87.542 216.835 87.542 217.568V218.849H90.1362V220.455H87.542V231H85.4644ZM98.312 220.713C97.9976 220.66 97.6569 220.634 97.29 220.634C95.9274 220.634 95.0028 221.215 94.5161 222.375V231H92.4385V218.849H94.46L94.4937 220.252C95.175 219.167 96.1408 218.624 97.3911 218.624C97.7954 218.624 98.1024 218.676 98.312 218.781V220.713ZM105.05 231.225C103.403 231.225 102.063 230.686 101.03 229.607C99.9966 228.522 99.48 227.073 99.48 225.261V224.879C99.48 223.674 99.7083 222.6 100.165 221.656C100.629 220.705 101.273 219.964 102.097 219.433C102.928 218.894 103.826 218.624 104.792 218.624C106.372 218.624 107.6 219.144 108.476 220.185C109.352 221.226 109.79 222.716 109.79 224.655V225.52H101.558C101.588 226.717 101.936 227.687 102.602 228.428C103.276 229.162 104.129 229.529 105.163 229.529C105.896 229.529 106.518 229.379 107.027 229.08C107.536 228.78 107.981 228.383 108.363 227.889L109.632 228.877C108.614 230.442 107.087 231.225 105.05 231.225ZM104.792 220.331C103.953 220.331 103.25 220.638 102.681 221.252C102.112 221.858 101.76 222.712 101.625 223.812H107.712V223.655C107.652 222.6 107.368 221.784 106.858 221.207C106.349 220.623 105.66 220.331 104.792 220.331ZM119.279 227.777C119.279 227.215 119.066 226.781 118.639 226.474C118.22 226.16 117.482 225.89 116.427 225.666C115.379 225.441 114.544 225.171 113.922 224.857C113.308 224.542 112.852 224.168 112.552 223.734C112.26 223.3 112.114 222.783 112.114 222.184C112.114 221.188 112.534 220.346 113.372 219.657C114.218 218.968 115.296 218.624 116.606 218.624C117.984 218.624 119.1 218.98 119.953 219.691C120.814 220.402 121.245 221.312 121.245 222.42H119.156C119.156 221.851 118.912 221.361 118.426 220.949C117.947 220.537 117.34 220.331 116.606 220.331C115.85 220.331 115.259 220.496 114.832 220.825C114.405 221.155 114.192 221.585 114.192 222.117C114.192 222.618 114.39 222.996 114.787 223.251C115.184 223.506 115.899 223.749 116.932 223.981C117.973 224.213 118.815 224.49 119.459 224.812C120.103 225.134 120.578 225.523 120.885 225.98C121.2 226.429 121.357 226.979 121.357 227.631C121.357 228.716 120.923 229.589 120.054 230.248C119.186 230.899 118.059 231.225 116.674 231.225C115.701 231.225 114.84 231.052 114.091 230.708C113.342 230.364 112.754 229.884 112.328 229.271C111.908 228.649 111.699 227.979 111.699 227.26H113.776C113.814 227.957 114.091 228.511 114.607 228.922C115.132 229.327 115.82 229.529 116.674 229.529C117.46 229.529 118.089 229.372 118.561 229.057C119.04 228.735 119.279 228.308 119.279 227.777ZM126.141 220.32C127.062 219.189 128.26 218.624 129.735 218.624C132.303 218.624 133.598 220.073 133.621 222.97V231H131.543V222.959C131.535 222.083 131.333 221.435 130.937 221.016C130.547 220.597 129.937 220.387 129.106 220.387C128.432 220.387 127.841 220.567 127.332 220.926C126.822 221.286 126.426 221.757 126.141 222.341V231H124.063V213.75H126.141V220.32ZM136.664 234.257L135.485 233.448C136.189 232.467 136.556 231.457 136.585 230.416V228.541H138.618V230.169C138.618 230.925 138.431 231.681 138.057 232.438C137.69 233.194 137.226 233.8 136.664 234.257ZM154.453 231C154.333 230.76 154.236 230.334 154.161 229.72C153.195 230.723 152.042 231.225 150.702 231.225C149.504 231.225 148.52 230.888 147.749 230.214C146.985 229.533 146.603 228.672 146.603 227.631C146.603 226.366 147.082 225.385 148.041 224.688C149.006 223.985 150.361 223.633 152.106 223.633H154.127V222.678C154.127 221.952 153.91 221.375 153.476 220.949C153.042 220.514 152.402 220.297 151.556 220.297C150.814 220.297 150.193 220.485 149.691 220.859C149.19 221.233 148.939 221.686 148.939 222.218H146.85C146.85 221.611 147.063 221.027 147.49 220.466C147.924 219.897 148.508 219.448 149.242 219.118C149.983 218.789 150.796 218.624 151.679 218.624C153.079 218.624 154.176 218.976 154.97 219.68C155.763 220.376 156.175 221.338 156.205 222.566V228.159C156.205 229.274 156.347 230.161 156.632 230.82V231H154.453ZM151.005 229.417C151.657 229.417 152.274 229.248 152.858 228.911C153.442 228.574 153.865 228.136 154.127 227.597V225.104H152.499C149.953 225.104 148.681 225.849 148.681 227.339C148.681 227.99 148.898 228.499 149.332 228.866C149.766 229.233 150.324 229.417 151.005 229.417ZM166.964 229.798C166.155 230.749 164.969 231.225 163.404 231.225C162.109 231.225 161.12 230.85 160.439 230.102C159.765 229.345 159.424 228.23 159.417 226.755V218.849H161.495V226.699C161.495 228.541 162.243 229.461 163.741 229.461C165.328 229.461 166.384 228.87 166.908 227.687V218.849H168.985V231H167.009L166.964 229.798ZM174.971 215.906V218.849H177.24V220.455H174.971V227.99C174.971 228.477 175.072 228.844 175.274 229.091C175.477 229.33 175.821 229.45 176.308 229.45C176.547 229.45 176.877 229.405 177.296 229.315V231C176.749 231.15 176.218 231.225 175.701 231.225C174.773 231.225 174.073 230.944 173.601 230.382C173.129 229.821 172.894 229.023 172.894 227.99V220.455H170.681V218.849H172.894V215.906H174.971ZM178.902 224.812C178.902 223.622 179.134 222.551 179.598 221.6C180.07 220.649 180.721 219.916 181.552 219.399C182.391 218.882 183.345 218.624 184.416 218.624C186.071 218.624 187.407 219.197 188.425 220.342C189.451 221.488 189.964 223.011 189.964 224.913V225.059C189.964 226.242 189.736 227.305 189.279 228.249C188.83 229.184 188.182 229.914 187.336 230.438C186.497 230.963 185.532 231.225 184.438 231.225C182.791 231.225 181.455 230.652 180.429 229.506C179.411 228.361 178.902 226.845 178.902 224.958V224.812ZM180.991 225.059C180.991 226.407 181.301 227.489 181.923 228.305C182.552 229.121 183.39 229.529 184.438 229.529C185.494 229.529 186.333 229.117 186.954 228.293C187.576 227.462 187.886 226.302 187.886 224.812C187.886 223.479 187.568 222.401 186.932 221.578C186.303 220.747 185.464 220.331 184.416 220.331C183.39 220.331 182.563 220.739 181.934 221.555C181.305 222.371 180.991 223.539 180.991 225.059ZM194.523 218.849L194.58 220.196C195.471 219.148 196.672 218.624 198.185 218.624C199.884 218.624 201.041 219.275 201.655 220.578C202.059 219.994 202.583 219.522 203.227 219.163C203.878 218.804 204.646 218.624 205.529 218.624C208.195 218.624 209.55 220.035 209.595 222.858V231H207.517V222.981C207.517 222.113 207.319 221.465 206.922 221.039C206.525 220.604 205.859 220.387 204.923 220.387C204.152 220.387 203.512 220.619 203.002 221.083C202.493 221.54 202.198 222.158 202.115 222.937V231H200.026V223.038C200.026 221.271 199.162 220.387 197.432 220.387C196.069 220.387 195.137 220.967 194.636 222.128V231H192.558V218.849H194.523ZM220.241 231C220.121 230.76 220.024 230.334 219.949 229.72C218.983 230.723 217.83 231.225 216.49 231.225C215.292 231.225 214.308 230.888 213.537 230.214C212.773 229.533 212.391 228.672 212.391 227.631C212.391 226.366 212.87 225.385 213.829 224.688C214.794 223.985 216.15 223.633 217.894 223.633H219.916V222.678C219.916 221.952 219.698 221.375 219.264 220.949C218.83 220.514 218.19 220.297 217.344 220.297C216.603 220.297 215.981 220.485 215.479 220.859C214.978 221.233 214.727 221.686 214.727 222.218H212.638C212.638 221.611 212.852 221.027 213.278 220.466C213.713 219.897 214.297 219.448 215.03 219.118C215.771 218.789 216.584 218.624 217.467 218.624C218.867 218.624 219.964 218.976 220.758 219.68C221.551 220.376 221.963 221.338 221.993 222.566V228.159C221.993 229.274 222.135 230.161 222.42 230.82V231H220.241ZM216.793 229.417C217.445 229.417 218.062 229.248 218.646 228.911C219.23 228.574 219.653 228.136 219.916 227.597V225.104H218.287C215.742 225.104 214.469 225.849 214.469 227.339C214.469 227.99 214.686 228.499 215.12 228.866C215.554 229.233 216.112 229.417 216.793 229.417ZM228.069 215.906V218.849H230.337V220.455H228.069V227.99C228.069 228.477 228.17 228.844 228.372 229.091C228.574 229.33 228.919 229.45 229.405 229.45C229.645 229.45 229.974 229.405 230.394 229.315V231C229.847 231.15 229.315 231.225 228.799 231.225C227.87 231.225 227.17 230.944 226.699 230.382C226.227 229.821 225.991 229.023 225.991 227.99V220.455H223.779V218.849H225.991V215.906H228.069ZM237.817 231.225C236.17 231.225 234.83 230.686 233.796 229.607C232.763 228.522 232.247 227.073 232.247 225.261V224.879C232.247 223.674 232.475 222.6 232.932 221.656C233.396 220.705 234.04 219.964 234.863 219.433C235.694 218.894 236.593 218.624 237.559 218.624C239.138 218.624 240.366 219.144 241.242 220.185C242.118 221.226 242.556 222.716 242.556 224.655V225.52H234.324C234.354 226.717 234.702 227.687 235.369 228.428C236.042 229.162 236.896 229.529 237.929 229.529C238.663 229.529 239.284 229.379 239.793 229.08C240.303 228.78 240.748 228.383 241.13 227.889L242.399 228.877C241.381 230.442 239.853 231.225 237.817 231.225ZM237.559 220.331C236.72 220.331 236.016 220.638 235.447 221.252C234.878 221.858 234.526 222.712 234.392 223.812H240.479V223.655C240.419 222.6 240.134 221.784 239.625 221.207C239.116 220.623 238.427 220.331 237.559 220.331ZM244.465 224.823C244.465 222.959 244.907 221.462 245.791 220.331C246.674 219.193 247.831 218.624 249.261 218.624C250.683 218.624 251.81 219.111 252.641 220.084V213.75H254.719V231H252.81L252.708 229.697C251.877 230.715 250.721 231.225 249.238 231.225C247.831 231.225 246.681 230.648 245.791 229.495C244.907 228.342 244.465 226.837 244.465 224.98V224.823ZM246.543 225.059C246.543 226.437 246.827 227.515 247.396 228.293C247.965 229.072 248.752 229.461 249.755 229.461C251.073 229.461 252.035 228.87 252.641 227.687V222.105C252.02 220.96 251.065 220.387 249.777 220.387C248.759 220.387 247.965 220.78 247.396 221.566C246.827 222.353 246.543 223.517 246.543 225.059ZM263.153 224.823C263.153 222.959 263.595 221.462 264.478 220.331C265.361 219.193 266.518 218.624 267.948 218.624C269.371 218.624 270.498 219.111 271.329 220.084V213.75H273.406V231H271.497L271.396 229.697C270.565 230.715 269.408 231.225 267.926 231.225C266.518 231.225 265.369 230.648 264.478 229.495C263.595 228.342 263.153 226.837 263.153 224.98V224.823ZM265.23 225.059C265.23 226.437 265.515 227.515 266.084 228.293C266.653 229.072 267.439 229.461 268.442 229.461C269.76 229.461 270.722 228.87 271.329 227.687V222.105C270.707 220.96 269.753 220.387 268.465 220.387C267.447 220.387 266.653 220.78 266.084 221.566C265.515 222.353 265.23 223.517 265.23 225.059ZM281.683 231.225C280.036 231.225 278.696 230.686 277.663 229.607C276.629 228.522 276.113 227.073 276.113 225.261V224.879C276.113 223.674 276.341 222.6 276.798 221.656C277.262 220.705 277.906 219.964 278.729 219.433C279.561 218.894 280.459 218.624 281.425 218.624C283.005 218.624 284.232 219.144 285.108 220.185C285.984 221.226 286.422 222.716 286.422 224.655V225.52H278.19C278.22 226.717 278.569 227.687 279.235 228.428C279.909 229.162 280.762 229.529 281.795 229.529C282.529 229.529 283.151 229.379 283.66 229.08C284.169 228.78 284.614 228.383 284.996 227.889L286.265 228.877C285.247 230.442 283.72 231.225 281.683 231.225ZM281.425 220.331C280.586 220.331 279.882 220.638 279.313 221.252C278.744 221.858 278.393 222.712 278.258 223.812H284.345V223.655C284.285 222.6 284 221.784 283.491 221.207C282.982 220.623 282.293 220.331 281.425 220.331ZM292.689 228.181L295.699 218.849H297.821L293.464 231H291.88L287.478 218.849H289.601L292.689 228.181ZM310.568 231.225C308.921 231.225 307.581 230.686 306.547 229.607C305.514 228.522 304.998 227.073 304.998 225.261V224.879C304.998 223.674 305.226 222.6 305.683 221.656C306.147 220.705 306.791 219.964 307.614 219.433C308.445 218.894 309.344 218.624 310.31 218.624C311.889 218.624 313.117 219.144 313.993 220.185C314.869 221.226 315.307 222.716 315.307 224.655V225.52H307.075C307.105 226.717 307.453 227.687 308.12 228.428C308.793 229.162 309.647 229.529 310.68 229.529C311.414 229.529 312.035 229.379 312.544 229.08C313.054 228.78 313.499 228.383 313.881 227.889L315.15 228.877C314.132 230.442 312.604 231.225 310.568 231.225ZM310.31 220.331C309.471 220.331 308.767 220.638 308.198 221.252C307.629 221.858 307.277 222.712 307.143 223.812H313.229V223.655C313.17 222.6 312.885 221.784 312.376 221.207C311.867 220.623 311.178 220.331 310.31 220.331ZM319.687 218.849L319.754 220.376C320.683 219.208 321.896 218.624 323.393 218.624C325.961 218.624 327.256 220.073 327.279 222.97V231H325.201V222.959C325.194 222.083 324.992 221.435 324.595 221.016C324.205 220.597 323.595 220.387 322.764 220.387C322.09 220.387 321.499 220.567 320.99 220.926C320.481 221.286 320.084 221.757 319.799 222.341V231H317.722V218.849H319.687ZM334.421 228.181L337.431 218.849H339.554L335.196 231H333.613L329.21 218.849H331.333L334.421 228.181ZM343.81 231H341.732V218.849H343.81V231ZM341.564 215.625C341.564 215.289 341.665 215.004 341.867 214.772C342.077 214.54 342.384 214.424 342.788 214.424C343.192 214.424 343.499 214.54 343.709 214.772C343.919 215.004 344.023 215.289 344.023 215.625C344.023 215.962 343.919 216.243 343.709 216.468C343.499 216.692 343.192 216.805 342.788 216.805C342.384 216.805 342.077 216.692 341.867 216.468C341.665 216.243 341.564 215.962 341.564 215.625ZM353.019 220.713C352.705 220.66 352.364 220.634 351.997 220.634C350.634 220.634 349.71 221.215 349.223 222.375V231H347.146V218.849H349.167L349.201 220.252C349.882 219.167 350.848 218.624 352.098 218.624C352.502 218.624 352.809 218.676 353.019 218.781V220.713ZM354.165 224.812C354.165 223.622 354.397 222.551 354.861 221.6C355.333 220.649 355.984 219.916 356.815 219.399C357.653 218.882 358.608 218.624 359.679 218.624C361.333 218.624 362.67 219.197 363.688 220.342C364.714 221.488 365.227 223.011 365.227 224.913V225.059C365.227 226.242 364.998 227.305 364.542 228.249C364.092 229.184 363.445 229.914 362.599 230.438C361.76 230.963 360.794 231.225 359.701 231.225C358.054 231.225 356.718 230.652 355.692 229.506C354.674 228.361 354.165 226.845 354.165 224.958V224.812ZM356.253 225.059C356.253 226.407 356.564 227.489 357.186 228.305C357.814 229.121 358.653 229.529 359.701 229.529C360.757 229.529 361.595 229.117 362.217 228.293C362.838 227.462 363.149 226.302 363.149 224.812C363.149 223.479 362.831 222.401 362.194 221.578C361.565 220.747 360.727 220.331 359.679 220.331C358.653 220.331 357.826 220.739 357.197 221.555C356.568 222.371 356.253 223.539 356.253 225.059ZM369.797 218.849L369.865 220.376C370.793 219.208 372.006 218.624 373.503 218.624C376.071 218.624 377.367 220.073 377.389 222.97V231H375.312V222.959C375.304 222.083 375.102 221.435 374.705 221.016C374.316 220.597 373.706 220.387 372.875 220.387C372.201 220.387 371.609 220.567 371.1 220.926C370.591 221.286 370.194 221.757 369.91 222.341V231H367.832V218.849H369.797ZM382.477 218.849L382.533 220.196C383.424 219.148 384.625 218.624 386.138 218.624C387.837 218.624 388.994 219.275 389.608 220.578C390.012 219.994 390.536 219.522 391.18 219.163C391.832 218.804 392.599 218.624 393.482 218.624C396.148 218.624 397.503 220.035 397.548 222.858V231H395.47V222.981C395.47 222.113 395.272 221.465 394.875 221.039C394.478 220.604 393.812 220.387 392.876 220.387C392.105 220.387 391.465 220.619 390.956 221.083C390.446 221.54 390.151 222.158 390.068 222.937V231H387.979V223.038C387.979 221.271 387.115 220.387 385.385 220.387C384.023 220.387 383.09 220.967 382.589 222.128V231H380.511V218.849H382.477ZM405.735 231.225C404.088 231.225 402.748 230.686 401.714 229.607C400.681 228.522 400.165 227.073 400.165 225.261V224.879C400.165 223.674 400.393 222.6 400.85 221.656C401.314 220.705 401.958 219.964 402.781 219.433C403.612 218.894 404.511 218.624 405.477 218.624C407.056 218.624 408.284 219.144 409.16 220.185C410.036 221.226 410.474 222.716 410.474 224.655V225.52H402.242C402.272 226.717 402.62 227.687 403.287 228.428C403.96 229.162 404.814 229.529 405.847 229.529C406.581 229.529 407.202 229.379 407.711 229.08C408.221 228.78 408.666 228.383 409.048 227.889L410.317 228.877C409.299 230.442 407.771 231.225 405.735 231.225ZM405.477 220.331C404.638 220.331 403.934 220.638 403.365 221.252C402.796 221.858 402.444 222.712 402.31 223.812H408.396V223.655C408.337 222.6 408.052 221.784 407.543 221.207C407.034 220.623 406.345 220.331 405.477 220.331ZM414.854 218.849L414.921 220.376C415.85 219.208 417.063 218.624 418.56 218.624C421.128 218.624 422.423 220.073 422.446 222.97V231H420.368V222.959C420.361 222.083 420.159 221.435 419.762 221.016C419.372 220.597 418.762 220.387 417.931 220.387C417.257 220.387 416.666 220.567 416.157 220.926C415.648 221.286 415.251 221.757 414.966 222.341V231H412.889V218.849H414.854ZM428.398 215.906V218.849H430.667V220.455H428.398V227.99C428.398 228.477 428.499 228.844 428.701 229.091C428.903 229.33 429.248 229.45 429.734 229.45C429.974 229.45 430.303 229.405 430.723 229.315V231C430.176 231.15 429.645 231.225 429.128 231.225C428.2 231.225 427.5 230.944 427.028 230.382C426.556 229.821 426.32 229.023 426.32 227.99V220.455H424.108V218.849H426.32V215.906H428.398ZM440.179 227.777C440.179 227.215 439.965 226.781 439.539 226.474C439.119 226.16 438.382 225.89 437.326 225.666C436.278 225.441 435.443 225.171 434.822 224.857C434.208 224.542 433.751 224.168 433.452 223.734C433.16 223.3 433.014 222.783 433.014 222.184C433.014 221.188 433.433 220.346 434.271 219.657C435.118 218.968 436.196 218.624 437.506 218.624C438.883 218.624 439.999 218.98 440.853 219.691C441.714 220.402 442.144 221.312 442.144 222.42H440.055C440.055 221.851 439.812 221.361 439.325 220.949C438.846 220.537 438.24 220.331 437.506 220.331C436.75 220.331 436.158 220.496 435.731 220.825C435.305 221.155 435.091 221.585 435.091 222.117C435.091 222.618 435.29 222.996 435.687 223.251C436.083 223.506 436.798 223.749 437.832 223.981C438.872 224.213 439.715 224.49 440.358 224.812C441.002 225.134 441.478 225.523 441.785 225.98C442.099 226.429 442.256 226.979 442.256 227.631C442.256 228.716 441.822 229.589 440.954 230.248C440.085 230.899 438.958 231.225 437.573 231.225C436.6 231.225 435.739 231.052 434.99 230.708C434.242 230.364 433.654 229.884 433.227 229.271C432.808 228.649 432.598 227.979 432.598 227.26H434.676C434.713 227.957 434.99 228.511 435.507 228.922C436.031 229.327 436.72 229.529 437.573 229.529C438.359 229.529 438.988 229.372 439.46 229.057C439.939 228.735 440.179 228.308 440.179 227.777Z" fill="#12100C" fill-opacity="0.7"/>
<path d="M3.59424 262V251.455H1.67383V249.849H3.59424V248.602C3.59424 247.299 3.94238 246.292 4.63867 245.581C5.33496 244.87 6.3195 244.514 7.59229 244.514C8.07145 244.514 8.54688 244.578 9.01855 244.705L8.90625 246.39C8.55436 246.322 8.18001 246.289 7.7832 246.289C7.10938 246.289 6.58903 246.487 6.22217 246.884C5.85531 247.273 5.67188 247.835 5.67188 248.568V249.849H8.26611V251.455H5.67188V262H3.59424ZM10.0181 255.812C10.0181 254.622 10.2502 253.551 10.7144 252.6C11.186 251.649 11.8374 250.916 12.6685 250.399C13.507 249.882 14.4616 249.624 15.5322 249.624C17.1868 249.624 18.5233 250.197 19.5415 251.342C20.5672 252.488 21.0801 254.011 21.0801 255.913V256.059C21.0801 257.242 20.8517 258.305 20.395 259.249C19.9458 260.184 19.2982 260.914 18.4521 261.438C17.6136 261.963 16.6478 262.225 15.5547 262.225C13.9076 262.225 12.5711 261.652 11.5454 260.506C10.5272 259.361 10.0181 257.845 10.0181 255.958V255.812ZM12.1069 256.059C12.1069 257.407 12.4176 258.489 13.0391 259.305C13.668 260.121 14.5065 260.529 15.5547 260.529C16.6104 260.529 17.4489 260.117 18.0703 259.293C18.6917 258.462 19.0024 257.302 19.0024 255.812C19.0024 254.479 18.6842 253.401 18.0479 252.578C17.4189 251.747 16.5804 251.331 15.5322 251.331C14.5065 251.331 13.6792 251.739 13.0503 252.555C12.4214 253.371 12.1069 254.539 12.1069 256.059ZM29.5591 251.713C29.2446 251.66 28.904 251.634 28.5371 251.634C27.1745 251.634 26.2498 252.215 25.7632 253.375V262H23.6855V249.849H25.707L25.7407 251.252C26.422 250.167 27.3879 249.624 28.6382 249.624C29.0425 249.624 29.3494 249.676 29.5591 249.781V251.713ZM42.2271 262.225C40.5799 262.225 39.2397 261.686 38.2065 260.607C37.1733 259.522 36.6567 258.073 36.6567 256.261V255.879C36.6567 254.674 36.8851 253.6 37.3418 252.656C37.806 251.705 38.4499 250.964 39.2734 250.433C40.1045 249.894 41.0029 249.624 41.9688 249.624C43.5485 249.624 44.7764 250.144 45.6523 251.185C46.5283 252.226 46.9663 253.716 46.9663 255.655V256.52H38.7344C38.7643 257.717 39.1125 258.687 39.7788 259.428C40.4526 260.162 41.3062 260.529 42.3394 260.529C43.0731 260.529 43.6945 260.379 44.2036 260.08C44.7127 259.78 45.1582 259.383 45.54 258.889L46.8091 259.877C45.7909 261.442 44.2635 262.225 42.2271 262.225ZM41.9688 251.331C41.1302 251.331 40.4264 251.638 39.8574 252.252C39.2884 252.858 38.9365 253.712 38.8018 254.812H44.8887V254.655C44.8288 253.6 44.5443 252.784 44.0352 252.207C43.526 251.623 42.8372 251.331 41.9688 251.331ZM56.8828 262C56.763 261.76 56.6657 261.334 56.5908 260.72C55.625 261.723 54.472 262.225 53.1318 262.225C51.9339 262.225 50.9494 261.888 50.1782 261.214C49.4146 260.533 49.0327 259.672 49.0327 258.631C49.0327 257.366 49.5119 256.385 50.4702 255.688C51.436 254.985 52.7912 254.633 54.5356 254.633H56.5571V253.678C56.5571 252.952 56.34 252.375 55.9058 251.949C55.4715 251.514 54.8314 251.297 53.9854 251.297C53.2441 251.297 52.6227 251.485 52.1211 251.859C51.6195 252.233 51.3687 252.686 51.3687 253.218H49.2798C49.2798 252.611 49.4932 252.027 49.9199 251.466C50.3542 250.897 50.9382 250.448 51.6719 250.118C52.4131 249.789 53.2254 249.624 54.1089 249.624C55.509 249.624 56.6058 249.976 57.3994 250.68C58.193 251.376 58.6048 252.338 58.6348 253.566V259.159C58.6348 260.274 58.777 261.161 59.0615 261.82V262H56.8828ZM53.4351 260.417C54.0864 260.417 54.7041 260.248 55.2881 259.911C55.8721 259.574 56.2951 259.136 56.5571 258.597V256.104H54.9287C52.3831 256.104 51.1104 256.849 51.1104 258.339C51.1104 258.99 51.3275 259.499 51.7617 259.866C52.196 260.233 52.7537 260.417 53.4351 260.417ZM66.7656 260.529C67.5068 260.529 68.1545 260.304 68.7085 259.855C69.2625 259.406 69.5695 258.844 69.6294 258.17H71.5947C71.5573 258.867 71.3177 259.529 70.876 260.158C70.4342 260.787 69.8428 261.289 69.1016 261.663C68.3678 262.037 67.5892 262.225 66.7656 262.225C65.111 262.225 63.7933 261.674 62.8125 260.574C61.8392 259.466 61.3525 257.953 61.3525 256.037V255.688C61.3525 254.506 61.5697 253.454 62.0039 252.533C62.4382 251.612 63.0596 250.897 63.8682 250.388C64.6842 249.879 65.6463 249.624 66.7544 249.624C68.117 249.624 69.2476 250.032 70.146 250.848C71.0519 251.664 71.5348 252.724 71.5947 254.026H69.6294C69.5695 253.24 69.27 252.596 68.731 252.095C68.1994 251.586 67.5405 251.331 66.7544 251.331C65.6987 251.331 64.8789 251.713 64.2949 252.477C63.7184 253.233 63.4302 254.33 63.4302 255.767V256.16C63.4302 257.56 63.7184 258.638 64.2949 259.395C64.8714 260.151 65.695 260.529 66.7656 260.529ZM76.0083 251.32C76.9292 250.189 78.1271 249.624 79.6021 249.624C82.1701 249.624 83.4653 251.073 83.4878 253.97V262H81.4102V253.959C81.4027 253.083 81.2005 252.435 80.8037 252.016C80.4144 251.597 79.8042 251.387 78.9731 251.387C78.2993 251.387 77.7078 251.567 77.1987 251.926C76.6896 252.286 76.2928 252.757 76.0083 253.341V262H73.9307V244.75H76.0083V251.32ZM95.1226 246.906V249.849H97.3911V251.455H95.1226V258.99C95.1226 259.477 95.2236 259.844 95.4258 260.091C95.6279 260.33 95.9723 260.45 96.459 260.45C96.6986 260.45 97.028 260.405 97.4473 260.315V262C96.9007 262.15 96.3691 262.225 95.8525 262.225C94.9242 262.225 94.2241 261.944 93.7524 261.382C93.2808 260.821 93.0449 260.023 93.0449 258.99V251.455H90.8325V249.849H93.0449V246.906H95.1226ZM107.33 262C107.21 261.76 107.113 261.334 107.038 260.72C106.072 261.723 104.919 262.225 103.579 262.225C102.381 262.225 101.397 261.888 100.625 261.214C99.8618 260.533 99.48 259.672 99.48 258.631C99.48 257.366 99.9591 256.385 100.917 255.688C101.883 254.985 103.238 254.633 104.983 254.633H107.004V253.678C107.004 252.952 106.787 252.375 106.353 251.949C105.919 251.514 105.279 251.297 104.433 251.297C103.691 251.297 103.07 251.485 102.568 251.859C102.067 252.233 101.816 252.686 101.816 253.218H99.7271C99.7271 252.611 99.9404 252.027 100.367 251.466C100.801 250.897 101.385 250.448 102.119 250.118C102.86 249.789 103.673 249.624 104.556 249.624C105.956 249.624 107.053 249.976 107.847 250.68C108.64 251.376 109.052 252.338 109.082 253.566V259.159C109.082 260.274 109.224 261.161 109.509 261.82V262H107.33ZM103.882 260.417C104.534 260.417 105.151 260.248 105.735 259.911C106.319 259.574 106.742 259.136 107.004 258.597V256.104H105.376C102.83 256.104 101.558 256.849 101.558 258.339C101.558 258.99 101.775 259.499 102.209 259.866C102.643 260.233 103.201 260.417 103.882 260.417ZM119.414 258.777C119.414 258.215 119.201 257.781 118.774 257.474C118.355 257.16 117.617 256.89 116.562 256.666C115.513 256.441 114.679 256.171 114.057 255.857C113.443 255.542 112.986 255.168 112.687 254.734C112.395 254.3 112.249 253.783 112.249 253.184C112.249 252.188 112.668 251.346 113.507 250.657C114.353 249.968 115.431 249.624 116.741 249.624C118.119 249.624 119.234 249.98 120.088 250.691C120.949 251.402 121.379 252.312 121.379 253.42H119.291C119.291 252.851 119.047 252.361 118.561 251.949C118.081 251.537 117.475 251.331 116.741 251.331C115.985 251.331 115.394 251.496 114.967 251.825C114.54 252.155 114.327 252.585 114.327 253.117C114.327 253.618 114.525 253.996 114.922 254.251C115.319 254.506 116.034 254.749 117.067 254.981C118.108 255.213 118.95 255.49 119.594 255.812C120.238 256.134 120.713 256.523 121.02 256.98C121.334 257.429 121.492 257.979 121.492 258.631C121.492 259.716 121.057 260.589 120.189 261.248C119.32 261.899 118.194 262.225 116.809 262.225C115.835 262.225 114.974 262.052 114.226 261.708C113.477 261.364 112.889 260.884 112.462 260.271C112.043 259.649 111.833 258.979 111.833 258.26H113.911C113.949 258.957 114.226 259.511 114.742 259.922C115.266 260.327 115.955 260.529 116.809 260.529C117.595 260.529 118.224 260.372 118.695 260.057C119.174 259.735 119.414 259.308 119.414 258.777ZM127.59 256.374L126.287 257.732V262H124.209V244.75H126.287V255.183L127.399 253.847L131.184 249.849H133.71L128.982 254.925L134.261 262H131.824L127.59 256.374ZM135.788 265.257L134.609 264.448C135.313 263.467 135.68 262.457 135.709 261.416V259.541H137.742V261.169C137.742 261.925 137.555 262.681 137.181 263.438C136.814 264.194 136.35 264.8 135.788 265.257ZM148.333 262H146.255V249.849H148.333V262ZM146.086 246.625C146.086 246.289 146.188 246.004 146.39 245.772C146.599 245.54 146.906 245.424 147.311 245.424C147.715 245.424 148.022 245.54 148.231 245.772C148.441 246.004 148.546 246.289 148.546 246.625C148.546 246.962 148.441 247.243 148.231 247.468C148.022 247.692 147.715 247.805 147.311 247.805C146.906 247.805 146.599 247.692 146.39 247.468C146.188 247.243 146.086 246.962 146.086 246.625ZM153.633 249.849L153.701 251.376C154.629 250.208 155.842 249.624 157.339 249.624C159.907 249.624 161.203 251.073 161.225 253.97V262H159.147V253.959C159.14 253.083 158.938 252.435 158.541 252.016C158.152 251.597 157.542 251.387 156.71 251.387C156.037 251.387 155.445 251.567 154.936 251.926C154.427 252.286 154.03 252.757 153.746 253.341V262H151.668V249.849H153.633ZM172.882 246.906V249.849H175.151V251.455H172.882V258.99C172.882 259.477 172.983 259.844 173.186 260.091C173.388 260.33 173.732 260.45 174.219 260.45C174.458 260.45 174.788 260.405 175.207 260.315V262C174.66 262.15 174.129 262.225 173.612 262.225C172.684 262.225 171.984 261.944 171.512 261.382C171.041 260.821 170.805 260.023 170.805 258.99V251.455H168.592V249.849H170.805V246.906H172.882ZM179.666 251.32C180.586 250.189 181.784 249.624 183.259 249.624C185.827 249.624 187.123 251.073 187.145 253.97V262H185.067V253.959C185.06 253.083 184.858 252.435 184.461 252.016C184.072 251.597 183.461 251.387 182.63 251.387C181.957 251.387 181.365 251.567 180.856 251.926C180.347 252.286 179.95 252.757 179.666 253.341V262H177.588V244.75H179.666V251.32ZM195.298 262.225C193.651 262.225 192.311 261.686 191.278 260.607C190.245 259.522 189.728 258.073 189.728 256.261V255.879C189.728 254.674 189.956 253.6 190.413 252.656C190.877 251.705 191.521 250.964 192.345 250.433C193.176 249.894 194.074 249.624 195.04 249.624C196.62 249.624 197.848 250.144 198.724 251.185C199.6 252.226 200.038 253.716 200.038 255.655V256.52H191.806C191.836 257.717 192.184 258.687 192.85 259.428C193.524 260.162 194.377 260.529 195.411 260.529C196.144 260.529 196.766 260.379 197.275 260.08C197.784 259.78 198.229 259.383 198.611 258.889L199.88 259.877C198.862 261.442 197.335 262.225 195.298 262.225ZM195.04 251.331C194.201 251.331 193.498 251.638 192.929 252.252C192.36 252.858 192.008 253.712 191.873 254.812H197.96V254.655C197.9 253.6 197.616 252.784 197.106 252.207C196.597 251.623 195.909 251.331 195.04 251.331ZM213.031 260.529C213.772 260.529 214.42 260.304 214.974 259.855C215.528 259.406 215.835 258.844 215.895 258.17H217.86C217.823 258.867 217.583 259.529 217.142 260.158C216.7 260.787 216.108 261.289 215.367 261.663C214.633 262.037 213.855 262.225 213.031 262.225C211.377 262.225 210.059 261.674 209.078 260.574C208.105 259.466 207.618 257.953 207.618 256.037V255.688C207.618 254.506 207.835 253.454 208.27 252.533C208.704 251.612 209.325 250.897 210.134 250.388C210.95 249.879 211.912 249.624 213.02 249.624C214.383 249.624 215.513 250.032 216.412 250.848C217.318 251.664 217.8 252.724 217.86 254.026H215.895C215.835 253.24 215.536 252.596 214.997 252.095C214.465 251.586 213.806 251.331 213.02 251.331C211.964 251.331 211.145 251.713 210.561 252.477C209.984 253.233 209.696 254.33 209.696 255.767V256.16C209.696 257.56 209.984 258.638 210.561 259.395C211.137 260.151 211.961 260.529 213.031 260.529ZM222.454 262H220.376V244.75H222.454V262ZM225.239 255.812C225.239 254.622 225.471 253.551 225.935 252.6C226.407 251.649 227.058 250.916 227.889 250.399C228.728 249.882 229.682 249.624 230.753 249.624C232.408 249.624 233.744 250.197 234.762 251.342C235.788 252.488 236.301 254.011 236.301 255.913V256.059C236.301 257.242 236.072 258.305 235.616 259.249C235.167 260.184 234.519 260.914 233.673 261.438C232.834 261.963 231.868 262.225 230.775 262.225C229.128 262.225 227.792 261.652 226.766 260.506C225.748 259.361 225.239 257.845 225.239 255.958V255.812ZM227.328 256.059C227.328 257.407 227.638 258.489 228.26 259.305C228.889 260.121 229.727 260.529 230.775 260.529C231.831 260.529 232.67 260.117 233.291 259.293C233.912 258.462 234.223 257.302 234.223 255.812C234.223 254.479 233.905 253.401 233.269 252.578C232.64 251.747 231.801 251.331 230.753 251.331C229.727 251.331 228.9 251.739 228.271 252.555C227.642 253.371 227.328 254.539 227.328 256.059ZM246.408 260.798C245.6 261.749 244.413 262.225 242.848 262.225C241.553 262.225 240.565 261.85 239.883 261.102C239.209 260.345 238.869 259.23 238.861 257.755V249.849H240.939V257.699C240.939 259.541 241.688 260.461 243.185 260.461C244.772 260.461 245.828 259.87 246.352 258.687V249.849H248.43V262H246.453L246.408 260.798ZM251.091 255.823C251.091 253.959 251.533 252.462 252.417 251.331C253.3 250.193 254.457 249.624 255.887 249.624C257.309 249.624 258.436 250.111 259.267 251.084V244.75H261.345V262H259.436L259.334 260.697C258.503 261.715 257.347 262.225 255.864 262.225C254.457 262.225 253.307 261.648 252.417 260.495C251.533 259.342 251.091 257.837 251.091 255.98V255.823ZM253.169 256.059C253.169 257.437 253.453 258.515 254.022 259.293C254.591 260.072 255.378 260.461 256.381 260.461C257.699 260.461 258.661 259.87 259.267 258.687V253.105C258.646 251.96 257.691 251.387 256.403 251.387C255.385 251.387 254.591 251.78 254.022 252.566C253.453 253.353 253.169 254.517 253.169 256.059ZM264.512 265.257L263.333 264.448C264.036 263.467 264.403 262.457 264.433 261.416V259.541H266.466V261.169C266.466 261.925 266.279 262.681 265.904 263.438C265.537 264.194 265.073 264.8 264.512 265.257ZM277.056 262H274.979V249.849H277.056V262ZM274.81 246.625C274.81 246.289 274.911 246.004 275.113 245.772C275.323 245.54 275.63 245.424 276.034 245.424C276.438 245.424 276.745 245.54 276.955 245.772C277.165 246.004 277.27 246.289 277.27 246.625C277.27 246.962 277.165 247.243 276.955 247.468C276.745 247.692 276.438 247.805 276.034 247.805C275.63 247.805 275.323 247.692 275.113 247.468C274.911 247.243 274.81 246.962 274.81 246.625ZM282.357 249.849L282.424 251.376C283.353 250.208 284.566 249.624 286.063 249.624C288.631 249.624 289.926 251.073 289.949 253.97V262H287.871V253.959C287.864 253.083 287.661 252.435 287.265 252.016C286.875 251.597 286.265 251.387 285.434 251.387C284.76 251.387 284.169 251.567 283.66 251.926C283.151 252.286 282.754 252.757 282.469 253.341V262H280.392V249.849H282.357ZM305.862 258.777C305.862 258.215 305.649 257.781 305.222 257.474C304.803 257.16 304.065 256.89 303.01 256.666C301.962 256.441 301.127 256.171 300.505 255.857C299.891 255.542 299.435 255.168 299.135 254.734C298.843 254.3 298.697 253.783 298.697 253.184C298.697 252.188 299.117 251.346 299.955 250.657C300.801 249.968 301.879 249.624 303.189 249.624C304.567 249.624 305.683 249.98 306.536 250.691C307.397 251.402 307.828 252.312 307.828 253.42H305.739C305.739 252.851 305.495 252.361 305.009 251.949C304.53 251.537 303.923 251.331 303.189 251.331C302.433 251.331 301.842 251.496 301.415 251.825C300.988 252.155 300.775 252.585 300.775 253.117C300.775 253.618 300.973 253.996 301.37 254.251C301.767 254.506 302.482 254.749 303.515 254.981C304.556 255.213 305.398 255.49 306.042 255.812C306.686 256.134 307.161 256.523 307.468 256.98C307.783 257.429 307.94 257.979 307.94 258.631C307.94 259.716 307.506 260.589 306.637 261.248C305.769 261.899 304.642 262.225 303.257 262.225C302.284 262.225 301.423 262.052 300.674 261.708C299.925 261.364 299.337 260.884 298.911 260.271C298.491 259.649 298.282 258.979 298.282 258.26H300.359C300.397 258.957 300.674 259.511 301.19 259.922C301.715 260.327 302.403 260.529 303.257 260.529C304.043 260.529 304.672 260.372 305.144 260.057C305.623 259.735 305.862 259.308 305.862 258.777ZM315.689 262.225C314.042 262.225 312.702 261.686 311.668 260.607C310.635 259.522 310.119 258.073 310.119 256.261V255.879C310.119 254.674 310.347 253.6 310.804 252.656C311.268 251.705 311.912 250.964 312.735 250.433C313.566 249.894 314.465 249.624 315.431 249.624C317.01 249.624 318.238 250.144 319.114 251.185C319.99 252.226 320.428 253.716 320.428 255.655V256.52H312.196C312.226 257.717 312.574 258.687 313.241 259.428C313.915 260.162 314.768 260.529 315.801 260.529C316.535 260.529 317.156 260.379 317.666 260.08C318.175 259.78 318.62 259.383 319.002 258.889L320.271 259.877C319.253 261.442 317.725 262.225 315.689 262.225ZM315.431 251.331C314.592 251.331 313.888 251.638 313.319 252.252C312.75 252.858 312.398 253.712 312.264 254.812H318.351V254.655C318.291 253.6 318.006 252.784 317.497 252.207C316.988 251.623 316.299 251.331 315.431 251.331ZM327.717 260.529C328.458 260.529 329.106 260.304 329.66 259.855C330.214 259.406 330.521 258.844 330.581 258.17H332.546C332.508 258.867 332.269 259.529 331.827 260.158C331.385 260.787 330.794 261.289 330.053 261.663C329.319 262.037 328.54 262.225 327.717 262.225C326.062 262.225 324.744 261.674 323.764 260.574C322.79 259.466 322.304 257.953 322.304 256.037V255.688C322.304 254.506 322.521 253.454 322.955 252.533C323.389 251.612 324.011 250.897 324.819 250.388C325.635 249.879 326.597 249.624 327.706 249.624C329.068 249.624 330.199 250.032 331.097 250.848C332.003 251.664 332.486 252.724 332.546 254.026H330.581C330.521 253.24 330.221 252.596 329.682 252.095C329.151 251.586 328.492 251.331 327.706 251.331C326.65 251.331 325.83 251.713 325.246 252.477C324.67 253.233 324.381 254.33 324.381 255.767V256.16C324.381 257.56 324.67 258.638 325.246 259.395C325.823 260.151 326.646 260.529 327.717 260.529ZM334.332 255.812C334.332 254.622 334.564 253.551 335.028 252.6C335.5 251.649 336.151 250.916 336.982 250.399C337.82 249.882 338.775 249.624 339.846 249.624C341.5 249.624 342.837 250.197 343.855 251.342C344.881 252.488 345.394 254.011 345.394 255.913V256.059C345.394 257.242 345.165 258.305 344.708 259.249C344.259 260.184 343.612 260.914 342.766 261.438C341.927 261.963 340.961 262.225 339.868 262.225C338.221 262.225 336.885 261.652 335.859 260.506C334.841 259.361 334.332 257.845 334.332 255.958V255.812ZM336.42 256.059C336.42 257.407 336.731 258.489 337.353 259.305C337.981 260.121 338.82 260.529 339.868 260.529C340.924 260.529 341.762 260.117 342.384 259.293C343.005 258.462 343.316 257.302 343.316 255.812C343.316 254.479 342.998 253.401 342.361 252.578C341.732 251.747 340.894 251.331 339.846 251.331C338.82 251.331 337.993 251.739 337.364 252.555C336.735 253.371 336.42 254.539 336.42 256.059ZM349.964 249.849L350.032 251.376C350.96 250.208 352.173 249.624 353.67 249.624C356.238 249.624 357.534 251.073 357.556 253.97V262H355.479V253.959C355.471 253.083 355.269 252.435 354.872 252.016C354.483 251.597 353.873 251.387 353.042 251.387C352.368 251.387 351.776 251.567 351.267 251.926C350.758 252.286 350.361 252.757 350.077 253.341V262H347.999V249.849H349.964ZM360.184 255.823C360.184 253.959 360.626 252.462 361.509 251.331C362.393 250.193 363.549 249.624 364.979 249.624C366.402 249.624 367.529 250.111 368.36 251.084V244.75H370.438V262H368.528L368.427 260.697C367.596 261.715 366.439 262.225 364.957 262.225C363.549 262.225 362.4 261.648 361.509 260.495C360.626 259.342 360.184 257.837 360.184 255.98V255.823ZM362.262 256.059C362.262 257.437 362.546 258.515 363.115 259.293C363.684 260.072 364.47 260.461 365.474 260.461C366.791 260.461 367.753 259.87 368.36 258.687V253.105C367.738 251.96 366.784 251.387 365.496 251.387C364.478 251.387 363.684 251.78 363.115 252.566C362.546 253.353 362.262 254.517 362.262 256.059ZM380.747 258.777C380.747 258.215 380.534 257.781 380.107 257.474C379.688 257.16 378.95 256.89 377.895 256.666C376.846 256.441 376.012 256.171 375.39 255.857C374.776 255.542 374.319 255.168 374.02 254.734C373.728 254.3 373.582 253.783 373.582 253.184C373.582 252.188 374.001 251.346 374.84 250.657C375.686 249.968 376.764 249.624 378.074 249.624C379.452 249.624 380.567 249.98 381.421 250.691C382.282 251.402 382.712 252.312 382.712 253.42H380.624C380.624 252.851 380.38 252.361 379.894 251.949C379.414 251.537 378.808 251.331 378.074 251.331C377.318 251.331 376.727 251.496 376.3 251.825C375.873 252.155 375.66 252.585 375.66 253.117C375.66 253.618 375.858 253.996 376.255 254.251C376.652 254.506 377.367 254.749 378.4 254.981C379.441 255.213 380.283 255.49 380.927 255.812C381.571 256.134 382.046 256.523 382.353 256.98C382.667 257.429 382.825 257.979 382.825 258.631C382.825 259.716 382.39 260.589 381.522 261.248C380.653 261.899 379.527 262.225 378.142 262.225C377.168 262.225 376.307 262.052 375.559 261.708C374.81 261.364 374.222 260.884 373.795 260.271C373.376 259.649 373.167 258.979 373.167 258.26H375.244C375.282 258.957 375.559 259.511 376.075 259.922C376.599 260.327 377.288 260.529 378.142 260.529C378.928 260.529 379.557 260.372 380.028 260.057C380.507 259.735 380.747 259.308 380.747 258.777ZM385.576 260.911C385.576 260.551 385.681 260.252 385.891 260.012C386.108 259.773 386.43 259.653 386.856 259.653C387.283 259.653 387.605 259.773 387.822 260.012C388.047 260.252 388.159 260.551 388.159 260.911C388.159 261.255 388.047 261.543 387.822 261.775C387.605 262.007 387.283 262.124 386.856 262.124C386.43 262.124 386.108 262.007 385.891 261.775C385.681 261.543 385.576 261.255 385.576 260.911Z" fill="#12100C" fill-opacity="0.7"/>
<defs>
<filter id="filter0_d_1_218" x="0" y="318" width="162" height="48" filterUnits="userSpaceOnUse" color-interpolation-filters="sRGB">
<feFlood flood-opacity="0" result="BackgroundImageFix"/>
<feColorMatrix in="SourceAlpha" type="matrix" values="0 0 0 0 0 0 0 0 0 0 0 0 0 0 0 0 0 0 127 0" result="hardAlpha"/>
<feOffset dy="1"/>
<feGaussianBlur stdDeviation="0.5"/>
<feColorMatrix type="matrix" values="0 0 0 0 0 0 0 0 0 0 0 0 0 0 0 0 0 0 0.1 0"/>
<feBlend mode="normal" in2="BackgroundImageFix" result="effect1_dropShadow_1_218"/>
<feBlend mode="normal" in="SourceGraphic" in2="effect1_dropShadow_1_218" result="shape"/>
</filter>
<linearGradient id="paint0_linear_1_218" x1="153.74" y1="394.401" x2="142.195" y2="409.155" gradientUnits="userSpaceOnUse">
<stop offset="0.18" stop-color="#0052CC"/>
<stop offset="1" stop-color="#2684FF"/>
</linearGradient>
<clipPath id="clip0_1_218">
<rect width="29" height="29" fill="white" transform="translate(66 382)"/>
</clipPath>
<clipPath id="clip1_1_218">
<rect width="29" height="29" fill="white" transform="translate(124 382)"/>
</clipPath>
<clipPath id="clip2_1_218">
<rect width="29" height="29" fill="white" transform="translate(9 382)"/>
</clipPath>
</defs>
</svg>
